<?xml version="1.0" standalone="no"?>
<!DOCTYPE svg PUBLIC "-//W3C//DTD SVG 20010904//EN"
 "http://www.w3.org/TR/2001/REC-SVG-20010904/DTD/svg10.dtd">
<svg version="1.0" xmlns="http://www.w3.org/2000/svg"
 width="260.000000pt" height="260.000000pt" viewBox="0 0 260.000000 260.000000"
 preserveAspectRatio="xMidYMid meet">
<metadata>
Created by potrace 1.14, written by Peter Selinger 2001-2017
</metadata>
<g transform="translate(0.000000,260.000000) scale(0.100000,-0.100000)"
fill="#000000" stroke="none">
<path d="M367 2588 c4 -8 0 -9 -13 -4 -10 4 -15 4 -11 0 4 -4 -1 -13 -11 -21
-16 -12 -15 -13 3 -6 18 6 19 5 5 -12 -9 -11 -10 -16 -2 -11 7 4 12 1 12 -9 0
-12 -4 -14 -19 -5 -15 7 -19 7 -17 -5 1 -8 6 -18 11 -22 4 -4 5 -2 1 5 -9 14
10 17 19 2 4 -6 16 -8 28 -5 12 2 16 2 9 -1 -6 -3 -9 -10 -6 -16 4 -6 -2 -6
-14 1 -13 7 -23 7 -27 1 -3 -5 -13 -7 -23 -4 -14 5 -14 4 -2 -4 8 -6 18 -8 24
-5 6 4 6 -1 2 -13 -5 -10 -9 -25 -9 -31 0 -7 -5 -13 -11 -13 -6 0 -4 -5 4 -10
13 -9 13 -10 0 -11 -8 -1 -18 -1 -22 0 -3 0 -5 -7 -4 -17 2 -9 10 -18 20 -18
13 -2 13 -1 1 3 -8 2 -13 9 -9 14 4 6 10 6 19 -1 9 -8 12 -4 10 15 -2 14 1 25
7 25 5 0 8 -8 7 -17 -2 -10 3 -29 10 -43 11 -23 11 -24 -3 -6 -14 17 -16 17
-22 3 -3 -9 -11 -14 -18 -10 -7 4 -7 1 1 -9 7 -8 10 -17 8 -20 -3 -3 6 -3 21
0 24 4 26 3 19 -19 -7 -22 -7 -23 11 -9 17 14 18 13 7 -1 -7 -9 -9 -20 -5 -25
4 -4 -1 -2 -11 5 -10 8 -16 20 -13 27 3 8 0 11 -10 7 -20 -7 -17 -15 18 -42
25 -20 34 -22 49 -13 12 8 20 8 24 2 4 -6 1 -9 -6 -8 -6 2 -13 -2 -16 -9 -5
-13 14 -12 37 2 13 8 13 7 1 -8 -7 -9 -17 -14 -22 -11 -5 3 -9 -1 -9 -8 0 -8
-3 -9 -8 -3 -9 13 -69 55 -79 55 -4 0 9 -11 27 -25 19 -14 44 -37 56 -52 15
-19 21 -22 21 -10 0 9 -5 13 -10 10 -6 -3 -7 -1 -3 5 12 20 24 13 24 -14 0
-15 -5 -23 -12 -21 -41 18 -46 18 -46 7 0 -6 5 -8 11 -4 7 4 10 1 7 -7 -3 -8
-14 -13 -24 -11 -18 2 -18 2 1 -10 11 -7 24 -13 30 -13 5 0 11 -9 13 -20 2
-14 0 -16 -6 -8 -6 10 -12 10 -27 0 -17 -13 -17 -14 5 -13 15 1 24 -5 26 -17
1 -10 -3 -16 -9 -14 -7 3 -11 9 -10 15 2 6 -4 9 -12 6 -19 -8 -19 -13 4 -48
13 -19 29 -30 45 -31 13 0 22 3 19 8 -3 5 -14 7 -24 4 -23 -6 -26 8 -4 17 9 3
24 -3 35 -14 11 -11 20 -16 20 -11 0 6 -5 13 -10 16 -8 5 -7 11 1 21 13 15 39
15 52 -1 5 -5 5 1 2 15 -6 21 -5 23 6 12 8 -7 14 -20 14 -30 0 -19 26 -24 38
-7 5 6 14 2 26 -12 10 -12 21 -19 25 -16 6 6 10 -13 6 -32 -1 -5 2 -7 6 -2 11
11 16 49 6 43 -5 -3 -18 1 -28 9 -17 13 -18 14 -1 15 9 0 17 -4 17 -9 0 -6 9
-8 19 -6 15 3 19 -1 16 -16 -2 -11 0 -17 4 -14 9 5 26 -23 23 -37 -3 -15 7 -8
18 12 8 15 8 18 -3 14 -9 -3 -17 3 -20 16 -5 20 -4 20 16 7 12 -8 21 -23 19
-33 -2 -13 3 -10 16 9 16 24 20 26 26 12 5 -14 9 -15 22 -4 12 10 17 10 23 0
9 -13 32 -11 43 4 5 6 8 5 8 -2 0 -7 5 -13 11 -13 5 0 8 4 4 9 -3 5 -1 12 4
15 5 4 8 -2 7 -11 -2 -15 -13 -18 -64 -18 -34 1 -62 -2 -62 -6 0 -4 18 -6 40
-5 23 2 43 -1 46 -6 3 -4 14 -4 24 2 13 7 21 7 25 0 3 -5 12 -10 18 -10 7 0 4
5 -6 11 -14 8 -15 14 -6 30 6 13 16 18 26 15 11 -5 13 -2 9 9 -3 10 -2 13 5
10 5 -4 7 -16 4 -28 -2 -12 -2 -16 1 -9 3 6 10 10 15 6 12 -7 11 3 -1 26 -7
13 -7 21 0 25 6 4 9 3 8 -2 -2 -4 5 -19 15 -33 10 -14 18 -18 16 -10 -3 29 1
41 13 34 7 -5 8 -3 3 6 -6 10 -11 9 -23 -6 -11 -14 -13 -15 -9 -3 3 9 1 22 -4
28 -6 8 -5 8 3 1 7 -6 16 -6 24 1 19 15 36 1 29 -24 -2 -12 -2 -16 1 -9 3 6
13 12 22 12 15 0 15 2 2 10 -13 9 -12 12 4 25 20 15 36 12 36 -8 0 -9 -2 -9
-8 0 -5 8 -13 9 -22 3 -13 -8 -12 -10 3 -10 14 0 17 -5 13 -22 -3 -13 -3 -17
0 -10 7 15 25 16 21 1 -1 -6 5 -14 13 -16 13 -4 13 -3 0 6 -14 10 -7 16 13 12
5 -1 6 3 3 8 -4 5 7 9 24 9 36 -1 52 -23 39 -55 -5 -13 -6 -23 -4 -23 3 0 10
12 15 26 7 17 14 23 22 17 20 -12 48 -14 48 -4 0 6 -5 13 -12 17 -7 5 -8 3 -3
-7 8 -12 6 -12 -8 0 -9 7 -17 10 -17 5 0 -5 -5 -2 -10 6 -9 13 -10 13 -10 0
-1 -11 -3 -11 -11 3 -15 26 -5 31 24 12 15 -10 28 -12 31 -6 4 5 -3 12 -14 16
-11 3 -20 11 -20 16 0 13 9 11 27 -7 15 -15 17 -14 30 8 12 19 13 20 8 3 -4
-16 0 -21 15 -22 17 -2 18 1 9 18 -6 12 -8 24 -4 27 3 3 8 -4 12 -16 6 -23 18
-29 28 -12 3 6 12 10 18 10 7 0 4 -5 -5 -11 -10 -5 -18 -15 -18 -21 0 -7 5 -6
15 2 8 7 15 9 16 4 0 -5 4 0 8 11 6 15 3 23 -13 32 -11 7 -16 12 -11 12 21 1
38 -18 41 -43 1 -15 -1 -24 -6 -21 -5 3 -13 -3 -19 -12 -6 -10 -11 -13 -11 -6
0 6 -9 10 -20 8 -14 -3 -18 0 -14 8 4 7 3 9 -1 4 -13 -11 -17 -47 -6 -47 6 0
13 5 16 10 4 6 15 8 26 5 13 -5 19 -2 19 10 0 9 5 13 10 10 6 -4 7 -12 3 -18
-3 -7 3 -4 14 6 11 9 23 14 26 10 4 -3 7 -1 7 5 0 7 4 12 9 12 5 0 8 -8 6 -17
-1 -10 0 -12 2 -5 3 7 12 11 20 10 9 -2 18 4 20 12 4 13 3 13 -6 0 -6 -8 -11
-10 -11 -4 0 14 -60 14 -60 0 0 -6 -4 -5 -9 3 -5 8 -7 20 -4 28 4 11 8 10 19
-4 12 -16 13 -16 14 -2 0 9 7 20 16 23 14 5 15 4 5 -8 -8 -9 -8 -16 -2 -20 9
-6 27 31 23 47 -1 5 2 6 8 2 6 -3 8 -10 5 -15 -7 -11 56 -60 68 -53 4 3 0 11
-10 20 -16 13 -15 13 7 1 14 -7 29 -11 35 -9 5 1 6 -1 2 -6 -5 -4 -14 -8 -20
-8 -7 0 -13 -8 -15 -17 -2 -10 2 -18 8 -18 6 0 8 4 5 10 -3 6 1 7 9 4 10 -4
16 -1 16 7 1 9 4 8 11 -4 6 -9 15 -15 20 -11 5 3 8 0 7 -8 -2 -7 3 -12 10 -11
6 2 12 -2 12 -7 0 -14 -13 -13 -28 2 -9 9 -12 9 -12 0 0 -7 6 -12 13 -12 8 0
7 -4 -3 -10 -20 -13 -4 -13 20 0 15 8 21 6 29 -7 6 -10 11 -13 11 -7 0 5 -6
16 -12 23 -11 11 -10 12 1 6 8 -4 17 -2 22 6 7 12 9 11 9 -1 0 -13 1 -13 10 0
8 12 10 12 10 1 0 -10 3 -11 13 -3 7 6 19 7 26 3 17 -11 -3 -18 -41 -16 -33 2
-36 -5 -8 -23 11 -7 19 -9 18 -5 -2 5 2 10 7 11 6 2 18 8 27 13 12 7 20 4 28
-8 11 -17 11 -17 6 0 -3 9 -1 17 4 17 6 0 10 -6 10 -12 0 -8 3 -9 8 -3 6 9 15
12 65 19 20 3 66 66 48 66 -6 0 -11 -6 -11 -14 0 -8 -4 -18 -10 -21 -17 -11
-11 14 9 34 11 11 16 23 13 27 -4 4 -2 4 5 0 6 -3 14 -2 18 4 4 6 11 8 16 4 5
-3 7 -10 3 -15 -3 -5 -10 -6 -16 -3 -7 5 -8 2 -3 -6 5 -8 4 -11 -1 -7 -6 3
-10 -3 -11 -13 -1 -10 5 -21 14 -24 13 -5 14 -4 4 8 -10 12 -9 17 8 28 12 7
21 18 21 25 0 7 5 13 10 13 6 0 14 9 18 19 7 19 8 18 19 -5 6 -14 7 -26 2 -30
-5 -3 -9 2 -9 11 0 9 -5 13 -10 10 -8 -5 -7 -11 1 -21 7 -9 8 -14 1 -14 -6 0
-12 3 -15 8 -2 4 -2 1 -1 -5 2 -7 -3 -13 -11 -13 -7 0 -17 -5 -20 -11 -4 -5
10 -3 30 6 26 10 42 12 50 5 8 -7 15 -3 24 16 8 19 8 24 0 18 -8 -4 -9 -3 -5
4 4 8 2 10 -7 6 -8 -3 -17 2 -21 11 -4 11 -2 14 7 8 22 -14 39 -12 33 3 -3 8
0 17 8 20 16 6 17 34 2 54 -10 13 -9 13 8 0 18 -13 19 -13 14 1 -4 9 -1 16 7
16 11 0 11 -5 3 -20 -8 -15 -7 -18 4 -12 7 3 5 0 -5 -8 -12 -10 -14 -17 -8
-22 6 -3 11 -1 11 6 0 7 2 10 5 7 3 -3 3 -13 -1 -22 -4 -11 -13 -15 -28 -11
-11 4 -16 3 -11 -2 13 -10 13 -23 1 -42 -9 -14 11 -34 26 -25 4 3 8 1 8 -5 0
-15 -18 -23 -25 -11 -3 5 -11 10 -18 10 -6 0 -2 -6 9 -14 11 -9 23 -11 28 -6
6 6 15 5 23 -2 11 -9 13 -8 11 2 -2 7 2 14 9 17 7 3 9 -4 6 -19 -3 -13 -3 -20
0 -17 4 3 8 15 10 28 2 12 10 27 18 32 8 5 9 9 3 9 -5 0 -15 -5 -22 -12 -6 -6
-15 -9 -18 -5 -4 3 1 13 9 22 9 9 13 23 10 32 -4 10 -2 14 5 9 6 -3 13 -2 16
3 4 5 -2 8 -11 7 -10 -2 -18 -10 -18 -19 0 -9 -5 -21 -11 -27 -7 -7 -10 3 -11
31 -1 30 2 38 9 28 8 -11 9 -10 4 3 -3 10 0 20 6 24 7 5 5 11 -7 20 -15 11
-16 16 -5 29 7 9 8 15 2 15 -6 0 -12 -3 -15 -7 -2 -5 -2 -2 0 5 2 9 -4 11 -20
7 -17 -4 -16 -2 6 10 25 14 27 19 15 33 -11 15 -11 15 2 5 12 -9 21 -8 40 7
27 21 21 26 -13 9 -21 -10 -21 -10 -3 5 26 21 32 20 50 -6 21 -30 21 -14 0 17
-9 14 -12 25 -8 25 5 0 2 5 -6 10 -11 7 -11 10 -2 10 7 0 10 5 6 12 -4 6 -3 8
4 4 6 -3 9 -15 7 -26 -2 -10 3 -24 11 -31 10 -8 14 -8 14 0 0 6 -5 11 -11 11
-8 0 -7 6 2 17 11 13 11 17 2 20 -15 5 -18 43 -3 43 6 0 10 8 10 18 0 12 -6 9
-21 -13 -12 -16 -19 -23 -16 -14 3 9 0 23 -6 30 -10 11 -9 11 4 1 14 -10 17
-9 22 7 3 13 0 18 -8 15 -6 -3 -18 3 -26 12 -9 12 -10 15 -1 10 6 -4 12 -3 12
3 0 5 -8 11 -17 13 -15 3 -14 5 4 10 12 3 22 3 21 -1 -2 -20 4 -30 21 -28 15
1 17 5 11 23 -5 12 -6 25 -3 28 4 3 1 6 -5 6 -7 0 -12 -5 -12 -12 0 -16 -13
-1 -16 18 -2 10 3 14 13 10 13 -5 14 -4 4 8 -14 17 2 31 22 20 9 -6 9 -4 0 7
-10 9 -16 10 -24 2 -6 -6 -19 -9 -28 -6 -10 3 -12 2 -5 -4 15 -11 13 -60 -3
-60 -7 0 -11 3 -8 5 3 3 -3 10 -12 17 -13 10 -20 9 -34 -3 -12 -11 -15 -20 -9
-27 7 -8 5 -12 -5 -12 -8 0 -12 4 -9 9 3 4 0 8 -6 8 -7 0 2 12 19 27 37 33 40
47 6 31 -13 -6 -22 -15 -19 -19 2 -4 -5 -13 -16 -19 -20 -11 -23 -29 -5 -43 6
-5 0 -6 -12 -2 -12 3 -24 1 -28 -5 -3 -6 -11 -8 -16 -5 -9 6 -13 -7 -10 -35 2
-13 1 -13 -8 0 -5 8 -7 18 -5 22 3 4 0 8 -5 8 -6 0 -11 -4 -11 -10 0 -5 -5
-10 -11 -10 -5 0 -7 5 -3 12 5 7 3 8 -6 3 -10 -6 -12 -4 -7 8 9 24 0 21 -14
-4 -8 -15 -8 -19 0 -15 6 4 11 3 11 -2 0 -17 -13 -22 -28 -9 -10 8 -13 8 -9 1
4 -7 0 -14 -8 -18 -9 -3 -12 -12 -8 -23 6 -16 5 -16 -10 -4 -11 9 -17 10 -17
2 0 -10 12 -15 31 -13 3 1 6 -5 6 -12 0 -7 -6 -13 -13 -13 -7 0 -11 3 -9 7 2
4 -2 7 -9 7 -8 0 -12 -6 -9 -13 2 -6 -10 -18 -26 -25 -36 -16 -39 -24 -11 -26
11 -1 18 2 15 7 -7 11 8 20 43 26 19 3 23 2 12 -5 -8 -5 -17 -8 -21 -6 -3 3
-12 -7 -19 -20 -11 -20 -16 -23 -28 -12 -13 10 -14 8 -9 -13 4 -14 4 -19 1
-12 -3 6 -9 10 -14 7 -5 -3 -16 2 -24 11 -14 14 -16 14 -16 0 0 -8 8 -20 18
-25 9 -6 12 -11 5 -11 -6 0 -15 5 -18 10 -4 6 -11 8 -16 4 -5 -3 -6 -10 -3
-16 4 -7 0 -7 -13 1 -14 7 -23 7 -31 -1 -8 -8 -9 -5 -6 9 4 12 0 22 -9 26 -7
3 -14 -1 -14 -9 0 -7 5 -10 11 -7 6 4 5 0 -1 -9 -7 -8 -10 -17 -7 -21 3 -3 -5
-3 -18 1 -18 5 -19 7 -6 10 14 3 16 8 8 21 -5 10 -6 22 -2 26 4 5 1 5 -5 1 -8
-4 -13 -2 -13 5 0 7 -3 10 -6 7 -3 -4 -1 -15 4 -25 7 -13 6 -22 -5 -32 -13
-12 -14 -11 -9 7 4 12 2 23 -5 28 -8 5 -10 3 -4 -7 7 -12 5 -12 -6 -1 -9 9
-10 15 -3 20 6 4 4 13 -8 25 -10 9 -18 12 -18 6 0 -5 -6 -7 -12 -3 -7 5 -3 -5
10 -20 24 -31 28 -46 11 -46 -5 0 -8 4 -5 9 3 4 -3 19 -15 32 -11 12 -17 29
-14 37 3 7 -2 20 -10 29 -8 8 -13 19 -9 24 3 5 0 8 -8 7 -7 -2 -12 5 -12 14 1
11 -4 14 -13 11 -8 -3 -19 0 -23 7 -4 7 -13 9 -19 6 -6 -4 -9 -12 -5 -17 3 -5
10 -7 15 -4 5 4 9 1 9 -4 0 -6 5 -10 12 -8 11 2 13 -2 17 -35 1 -10 3 -10 10
0 7 11 9 11 13 0 4 -10 -3 -14 -22 -13 -20 0 -26 3 -19 12 12 14 -28 46 -45
36 -6 -3 -8 -2 -3 2 4 5 0 19 -9 33 -8 13 -13 30 -10 37 3 10 0 12 -11 8 -11
-4 -14 -2 -9 5 4 7 1 12 -8 12 -9 0 -16 5 -16 10 0 6 -7 10 -16 10 -9 0 -12
-5 -8 -12 4 -7 3 -10 -1 -5 -5 4 -9 16 -10 27 -2 18 -1 18 27 -2 24 -16 32
-18 41 -8 9 10 9 11 -1 6 -7 -4 -25 3 -43 18 -17 14 -27 26 -23 26 4 0 -1 7
-12 16 -18 15 -18 15 2 5 20 -10 34 -6 34 8 0 4 -52 8 -116 9 -102 3 -118 1
-130 -15 -10 -13 -13 -14 -9 -2 4 11 -1 15 -19 15 -14 0 -22 -4 -20 -8 3 -5
11 -5 17 -2 7 4 9 4 5 -1 -4 -4 -1 -20 7 -36 11 -20 12 -30 3 -35 -6 -4 -8 -3
-4 4 3 6 0 17 -8 25 -8 8 -12 17 -9 21 4 3 1 6 -6 6 -9 0 -11 -6 -6 -17 4 -10
8 -27 9 -38 0 -11 5 -23 9 -26 5 -3 1 -9 -9 -13 -10 -4 -15 -4 -11 0 4 4 1 14
-6 22 -8 11 -8 14 0 9 13 -8 12 18 -2 30 -4 4 -5 3 -1 -4 3 -6 2 -14 -3 -18
-6 -3 -7 -13 -4 -22 4 -10 2 -14 -5 -9 -6 3 -13 2 -16 -3 -4 -5 -1 -13 5 -17
8 -5 9 -3 4 7 -8 12 -6 12 8 0 9 -7 17 -19 17 -25 0 -7 -3 -7 -8 -1 -12 16
-32 16 -32 -1 0 -8 -4 -13 -10 -9 -5 3 -7 12 -3 20 3 8 -1 15 -8 15 -7 0 -9
-3 -6 -7 9 -9 -23 -44 -34 -37 -5 3 -9 0 -9 -5 0 -14 13 -14 28 1 9 9 12 9 12
0 0 -7 7 -9 18 -5 10 4 8 -2 -8 -14 -18 -15 -29 -18 -37 -11 -7 6 -13 7 -13 2
0 -5 -4 -3 -9 5 -6 9 -11 10 -15 2 -6 -10 6 -15 26 -12 4 0 5 -6 2 -13 -3 -8
-12 -12 -19 -10 -17 7 -29 -12 -14 -22 8 -4 9 -3 5 4 -5 8 -2 10 8 6 9 -3 16
-10 16 -16 0 -5 -5 -6 -10 -3 -6 3 -15 -4 -20 -17 -11 -23 -11 -23 -6 0 3 14
-1 22 -10 22 -8 0 -11 -6 -7 -17 5 -12 3 -14 -8 -7 -19 12 -40 14 -34 3 3 -4
-3 -14 -15 -21 -11 -7 -20 -17 -20 -22 0 -4 6 -4 13 3 14 11 37 -3 37 -23 0
-5 -6 -2 -13 8 -13 17 -14 17 -28 0 -13 -16 -12 -17 5 -11 16 7 17 5 5 -9 -8
-10 -15 -12 -17 -5 -2 6 -8 9 -12 6 -5 -3 -12 0 -16 6 -5 8 -3 9 6 4 9 -6 11
-4 5 5 -6 9 -4 11 5 5 9 -6 11 -4 5 4 -5 9 -10 10 -18 2 -15 -15 -27 -14 -23
2 1 6 1 9 -1 5 -3 -5 -9 -8 -14 -8 -6 0 -8 4 -5 9 3 5 -8 7 -25 6 -24 -2 -29
0 -24 14 5 12 3 13 -6 4 -13 -13 -3 -37 12 -28 5 3 6 -1 3 -9 -3 -9 -1 -16 5
-16 6 0 11 7 11 17 0 9 3 13 8 9 4 -4 7 -13 7 -18 0 -6 7 -13 15 -15 13 -4 13
-3 0 6 -8 6 -10 11 -4 11 6 0 17 -7 24 -15 10 -13 11 -18 1 -28 -10 -9 -11 -9
-6 4 4 12 0 15 -17 14 -13 -1 -32 3 -43 8 -11 6 -26 10 -32 9 -7 -2 -13 2 -13
8 0 6 6 8 13 4 9 -5 9 -4 0 6 -6 7 -9 20 -5 29 3 9 -9 0 -28 -19 -28 -29 -31
-30 -17 -8 20 32 22 44 5 31 -17 -13 -49 -13 -41 0 4 7 -1 8 -12 3 -15 -5 -16
-4 -5 9 13 16 35 21 25 6 -10 -17 12 -21 26 -5 7 8 8 14 3 12 -18 -5 -56 23
-50 38 3 9 1 12 -4 9 -6 -3 -10 -1 -10 6 0 7 -3 9 -6 6 -4 -4 1 -19 11 -34 10
-15 14 -25 10 -21 -5 4 -14 3 -21 -3 -10 -8 -12 -5 -8 17 5 25 3 26 -13 14
-15 -12 -16 -12 -5 0 6 8 12 22 12 32 0 10 5 18 11 18 5 0 7 5 3 11 -4 8 -9 7
-15 -2 -7 -11 -9 -11 -9 1 0 13 -1 13 -10 0 -5 -8 -10 -10 -11 -5 -1 6 -2 15
-4 20 -1 6 -3 16 -3 23 -1 7 -6 11 -11 7 -5 -3 -12 -1 -16 5 -3 5 -12 10 -18
10 -7 0 -4 -5 6 -11 9 -6 15 -14 12 -19 -3 -5 0 -12 6 -16 8 -4 9 -3 5 4 -4 7
-3 12 3 12 5 0 9 -9 8 -19 -1 -14 -5 -17 -13 -11 -6 6 -15 6 -19 2 -5 -4 -5
-1 -1 6 4 6 2 12 -3 12 -6 0 -11 -5 -11 -12 0 -6 -3 -8 -6 -5 -4 4 -1 13 6 22
15 18 0 20 -20 3 -12 -11 -12 -10 -1 5 15 20 2 23 -18 5 -11 -11 -12 -10 -6 1
6 11 4 13 -8 8 -10 -3 -17 -2 -17 2 0 11 27 22 33 13 2 -4 2 -1 1 6 -2 6 1 12
5 12 5 0 12 -6 14 -12 4 -10 6 -10 6 -1 1 15 -16 26 -43 27 -21 2 -26 7 -26
28 0 9 3 9 12 0 7 -7 16 -12 22 -12 5 0 2 6 -9 13 -12 10 -14 16 -7 21 7 4 12
2 12 -3 0 -6 5 -11 11 -11 8 0 8 4 0 14 -7 8 -8 16 -4 18 4 3 3 3 -4 2 -6 -2
-14 0 -16 4 -2 4 -2 2 -1 -5 4 -14 -22 -36 -47 -40 -11 -2 -19 3 -19 11 0 8
-5 18 -12 22 -8 5 -9 2 -5 -10 4 -9 3 -14 -2 -11 -5 3 -12 1 -15 -4 -4 -5 3
-12 14 -16 20 -6 19 -25 -1 -25 -6 0 -7 5 -4 10 10 17 -7 11 -22 -7 -13 -16
-13 -16 -3 5 8 17 8 22 -2 22 -9 0 -9 3 2 10 13 9 13 10 0 10 -9 1 -5 6 10 15
33 19 38 18 44 -3 7 -22 33 -25 41 -4 8 21 0 25 -50 28 -31 2 -43 -1 -38 -8z
m78 -8 c3 -5 1 -10 -4 -10 -6 0 -11 5 -11 10 0 6 2 10 4 10 3 0 8 -4 11 -10z
m3 -71 c19 -30 11 -32 -11 -3 -10 13 -14 24 -10 24 5 0 14 -9 21 -21z m-19
-27 c-1 -15 -2 -15 -6 1 -2 9 -9 14 -15 11 -7 -4 -8 -2 -4 5 10 15 26 4 25
-17z m65 16 c-3 -4 -9 -8 -15 -8 -5 0 -9 4 -9 8 0 5 7 9 15 9 8 0 12 -4 9 -9z
m1716 -8 c0 -5 -2 -10 -4 -10 -3 0 -8 5 -11 10 -3 6 -1 10 4 10 6 0 11 -4 11
-10z m70 -16 c0 -8 -5 -12 -10 -9 -6 4 -8 11 -5 16 9 14 15 11 15 -7z m-1915
-27 c-9 -4 -13 -12 -11 -16 3 -4 -1 -8 -9 -8 -13 0 -13 3 0 17 12 13 12 19 2
29 -9 11 -7 10 10 0 19 -11 20 -15 8 -22z m40 23 c3 -5 1 -10 -4 -10 -6 0 -11
5 -11 10 0 6 2 10 4 10 3 0 8 -4 11 -10z m1062 -29 c0 -11 -5 -18 -9 -15 -4 3
-5 11 -1 19 7 21 12 19 10 -4z m653 -1 c0 -5 -2 -10 -4 -10 -3 0 -8 5 -11 10
-3 6 -1 10 4 10 6 0 11 -4 11 -10z m-102 -34 c-7 -8 -15 -12 -17 -11 -5 6 10
25 20 25 5 0 4 -6 -3 -14z m-1398 -8 c0 -4 -7 -8 -15 -8 -8 0 -15 4 -15 8 0 5
7 9 15 9 8 0 15 -4 15 -9z m1368 -18 c-1 -17 -2 -29 -3 -28 -13 16 -25 49 -16
44 6 -4 11 -2 11 3 0 6 2 11 4 11 3 0 4 -14 4 -30z m-375 -51 c-6 -6 -9 -19
-6 -28 3 -11 1 -11 -7 3 -10 15 -9 20 1 27 19 12 25 11 12 -2z m-646 -41 c-5
-3 -16 -4 -24 -1 -10 4 -11 9 -2 19 8 10 14 11 24 1 8 -8 9 -14 2 -19z m-560
-23 c0 -8 -6 -16 -14 -19 -11 -4 -11 -1 -3 14 13 24 17 25 17 5z m336 0 c-3
-9 -8 -14 -10 -11 -3 3 -2 9 2 15 9 16 15 13 8 -4z m577 -65 c-18 -12 -30 -13
-30 -2 0 4 10 9 22 9 18 2 20 0 8 -7z m20 -24 c-1 -5 4 -13 12 -18 10 -6 8 -8
-6 -6 -12 2 -24 -5 -31 -19 -11 -21 -11 -21 -24 -1 -12 20 -12 20 -30 -1 -10
-12 -22 -21 -26 -21 -5 0 2 12 16 26 l24 26 -30 -7 -30 -6 33 15 c18 8 39 13
46 10 8 -3 17 0 21 6 8 12 27 9 25 -4z m-153 -21 c0 -8 -4 -12 -9 -9 -5 3 -6
10 -3 15 9 13 12 11 12 -6z m1023 0 c0 -1 -6 -7 -13 -13 -10 -8 -13 -6 -14 8
-1 13 3 17 13 13 8 -3 14 -6 14 -8z m-84 -22 c-2 -9 -8 -19 -14 -21 -7 -2 -9
-9 -6 -14 5 -7 2 -8 -6 -3 -10 6 -9 11 5 22 11 7 15 13 11 13 -4 0 -4 5 -1 10
9 15 14 12 11 -7z m-1683 -16 c-4 -6 0 -8 10 -4 11 4 14 2 11 -8 -3 -7 3 -18
14 -24 15 -8 22 -8 25 2 2 6 3 4 2 -5 -4 -21 11 -24 18 -5 4 8 6 7 6 -3 0 -8
-4 -22 -9 -30 -8 -12 -10 -13 -10 -1 0 10 -8 7 -25 -9 -14 -13 -28 -21 -31
-17 -4 3 -15 2 -25 -3 -14 -8 -21 -6 -30 12 -11 21 -11 22 4 10 17 -14 41 -7
32 9 -4 5 0 9 7 9 9 0 9 3 -2 10 -8 5 -10 10 -3 10 15 0 10 29 -7 40 -8 5 -19
6 -25 2 -5 -3 -4 2 3 10 14 18 46 13 35 -5z m44 17 c-3 -3 -12 -4 -19 -1 -8 3
-5 6 6 6 11 1 17 -2 13 -5z m849 -18 c-12 -19 -12 -26 -3 -30 6 -3 1 -3 -12 0
-16 4 -21 3 -17 -5 4 -6 2 -11 -3 -11 -18 0 -12 19 9 30 11 6 20 17 20 25 0 8
5 15 11 15 7 0 5 -9 -5 -24z m43 -6 c11 -24 11 -24 -3 -6 -9 11 -16 24 -16 30
0 12 5 7 19 -24z m-180 -2 c-12 -23 -21 -24 -12 -1 5 12 3 14 -7 8 -8 -5 -11
-4 -7 2 3 5 13 10 21 10 11 0 13 -5 5 -19z m89 1 c-2 -6 -7 -9 -12 -7 -4 2
-14 -8 -21 -22 -8 -14 -14 -20 -15 -15 0 15 30 55 41 55 6 0 9 -5 7 -11z
m-798 -9 c0 -5 -5 -10 -11 -10 -5 0 -7 5 -4 10 3 6 8 10 11 10 2 0 4 -4 4 -10z
m738 -15 c-3 -3 -9 2 -12 12 -6 14 -5 15 5 6 7 -7 10 -15 7 -18z m138 -11 c3
-16 2 -26 -1 -23 -3 4 -8 19 -11 35 -3 16 -2 26 1 23 3 -4 8 -19 11 -35z
m-198 1 c-3 -3 -9 2 -12 12 -6 14 -5 15 5 6 7 -7 10 -15 7 -18z m1017 4 c-2
-12 0 -30 5 -40 6 -10 6 -20 1 -23 -5 -3 -12 1 -15 9 -3 8 -9 15 -13 14 -20
-3 -24 2 -13 16 7 8 9 15 4 15 -6 0 25 28 33 30 1 0 0 -10 -2 -21z m-1603 -24
c4 -5 6 -16 3 -23 -3 -7 0 -10 5 -7 6 3 10 4 10 1 0 -3 -9 -10 -21 -17 -18 -9
-20 -8 -15 9 4 13 1 22 -8 25 -8 3 -14 15 -13 26 1 16 4 18 17 8 8 -7 18 -16
22 -22z m23 17 c-3 -3 -11 0 -18 7 -9 10 -8 11 6 5 10 -3 15 -9 12 -12z m525
8 c0 -5 -5 -10 -11 -10 -5 0 -7 5 -4 10 3 6 8 10 11 10 2 0 4 -4 4 -10z m305
0 c3 -6 -1 -7 -9 -4 -18 7 -21 14 -7 14 6 0 13 -4 16 -10z m601 -2 c-10 -6
-22 -6 -26 -2 -5 5 3 10 18 11 22 1 24 0 8 -9z m-746 -33 c0 -5 -5 -3 -10 5
-5 8 -10 20 -10 25 0 6 5 3 10 -5 5 -8 10 -19 10 -25z m275 26 c3 -5 2 -12 -3
-15 -5 -3 -9 1 -9 9 0 17 3 19 12 6z m-421 -23 c-7 -23 -7 -23 15 -4 22 20 76
32 66 15 -4 -5 -13 -9 -21 -9 -8 0 -14 -5 -14 -11 0 -6 -6 -9 -12 -6 -7 2 -20
-2 -30 -10 -9 -8 -18 -11 -21 -6 -5 9 9 53 18 53 4 0 3 -10 -1 -22z m-529 -8
c-3 -5 -1 -10 4 -10 6 0 11 5 11 12 0 6 3 8 6 5 4 -4 1 -14 -6 -22 -11 -13
-15 -13 -21 -3 -12 18 -11 28 2 28 5 0 7 -4 4 -10z m1495 0 c0 -5 -4 -10 -10
-10 -5 0 -10 5 -10 10 0 6 5 10 10 10 6 0 10 -4 10 -10z m-1443 -15 c0 -8 -4
-12 -9 -9 -5 3 -6 10 -3 15 9 13 12 11 12 -6z m1260 -17 c-2 -7 -1 -20 4 -29
7 -13 3 -16 -16 -13 -14 1 -25 -2 -25 -7 0 -14 -17 -10 -23 5 -4 11 -1 13 11
9 15 -6 16 -5 2 13 -14 18 -14 18 6 1 24 -20 40 -11 21 11 -9 13 -9 14 1 8 6
-4 12 -2 12 3 0 6 3 11 6 11 3 0 4 -6 1 -12z m-202 -28 c-3 -5 -12 -10 -18
-10 -7 0 -6 4 3 10 19 12 23 12 15 0z m135 -23 c0 -2 -8 -3 -18 -3 -10 0 -19
6 -19 13 0 8 6 9 19 2 10 -5 18 -11 18 -12z"/>
<path d="M1307 2163 c-11 -11 -17 -13 -17 -5 0 7 -5 12 -12 12 -8 0 -6 -6 5
-17 16 -16 18 -16 39 5 12 12 18 22 12 22 -5 0 -17 -8 -27 -17z"/>
<path d="M454 2059 c-2 -32 4 -35 30 -16 17 13 17 14 -6 29 -23 15 -23 15 -24
-13z m36 -4 c0 -2 -6 -5 -13 -8 -8 -3 -14 1 -14 8 0 7 6 11 14 8 7 -3 13 -6
13 -8z"/>
<path d="M2156 2052 c-3 -5 1 -9 9 -9 8 0 12 4 9 9 -3 4 -7 8 -9 8 -2 0 -6 -4
-9 -8z"/>
<path d="M550 2061 c0 -5 7 -12 16 -15 14 -5 15 -4 4 9 -14 17 -20 19 -20 6z"/>
<path d="M2127 2583 c3 -8 -3 -13 -13 -14 -15 0 -16 -2 -4 -7 9 -4 15 -13 14
-19 -1 -7 -2 -18 -3 -24 0 -5 -6 -7 -13 -3 -7 5 -8 3 -3 -6 6 -10 4 -12 -7 -7
-12 4 -15 0 -11 -16 4 -22 4 -22 -13 -2 -13 15 -15 16 -11 3 3 -9 1 -19 -6
-22 -7 -2 -1 -3 12 -2 14 2 27 8 29 14 2 7 8 10 13 6 5 -3 9 -2 8 3 -4 16 13
43 24 36 6 -3 7 -1 3 6 -4 6 0 14 9 17 14 6 14 8 -2 20 -16 13 -16 13 7 5 14
-5 30 -9 35 -10 6 -1 10 -8 10 -17 0 -8 8 -20 17 -25 17 -10 20 4 5 29 -6 8 0
15 17 22 30 11 32 16 10 24 -8 3 -12 2 -9 -4 3 -6 1 -10 -4 -10 -6 0 -11 3
-11 8 0 4 -24 7 -54 7 -39 0 -52 -3 -49 -12z m103 -8 c0 -12 -19 -12 -23 0 -4
9 -1 12 9 8 7 -3 14 -7 14 -8z m-85 -14 c3 -5 2 -12 -3 -15 -5 -3 -9 1 -9 9 0
17 3 19 12 6z"/>
<path d="M1430 2560 c0 -16 17 -20 34 -7 15 11 15 13 -8 15 -14 1 -26 -2 -26
-8z"/>
<path d="M2075 2551 c-3 -5 -2 -12 3 -15 5 -3 9 1 9 9 0 17 -3 19 -12 6z"/>
<path d="M1090 2540 c0 -5 5 -10 11 -10 5 0 7 5 4 10 -3 6 -8 10 -11 10 -2 0
-4 -4 -4 -10z"/>
<path d="M1468 2533 c7 -3 16 -2 19 1 4 3 -2 6 -13 5 -11 0 -14 -3 -6 -6z"/>
<path d="M1096 2503 c-6 -14 -5 -15 5 -6 7 7 10 15 7 18 -3 3 -9 -2 -12 -12z"/>
<path d="M1505 2440 c3 -5 8 -10 11 -10 2 0 4 5 4 10 0 6 -5 10 -11 10 -5 0
-7 -4 -4 -10z"/>
<path d="M685 2360 c-3 -6 1 -7 9 -4 18 7 21 14 7 14 -6 0 -13 -4 -16 -10z"/>
<path d="M1890 2340 c-9 -6 -10 -10 -3 -10 6 0 15 5 18 10 8 12 4 12 -15 0z"/>
<path d="M1850 2291 c0 -6 4 -13 10 -16 6 -3 7 1 4 9 -7 18 -14 21 -14 7z"/>
<path d="M1782 2270 c7 -11 17 -19 21 -17 11 3 7 23 -4 20 -5 -2 -9 2 -9 7 0
6 -5 10 -10 10 -6 0 -5 -8 2 -20z"/>
<path d="M2245 2260 c-3 -5 -1 -10 4 -10 6 0 11 5 11 10 0 6 -2 10 -4 10 -3 0
-8 -4 -11 -10z"/>
<path d="M2207 2240 c-13 -16 -14 -20 -3 -20 8 0 17 7 20 16 9 25 2 26 -17 4z"/>
<path d="M2230 2226 c0 -2 9 -6 20 -9 11 -3 18 -1 14 4 -5 9 -34 13 -34 5z"/>
<path d="M2228 2203 c7 -3 16 -2 19 1 4 3 -2 6 -13 5 -11 0 -14 -3 -6 -6z"/>
<path d="M2216 2178 c3 -5 10 -6 15 -3 13 9 11 12 -6 12 -8 0 -12 -4 -9 -9z"/>
<path d="M363 2095 c-3 -9 -3 -19 1 -22 3 -4 6 1 6 11 0 10 5 14 12 10 7 -4 8
-3 4 4 -10 16 -15 15 -23 -3z"/>
<path d="M1510 2038 c0 -6 3 -8 7 -5 3 4 12 2 20 -4 9 -8 10 -15 3 -24 -8 -9
-8 -15 0 -20 6 -4 9 -1 8 6 -2 6 3 14 10 16 7 3 10 -1 6 -10 -3 -8 -1 -17 4
-21 21 -13 3 35 -20 54 -30 23 -38 25 -38 8z"/>
<path d="M1295 2012 c-6 -7 15 -32 26 -32 5 0 9 8 9 18 0 17 -23 26 -35 14z"/>
<path d="M365 2000 c-3 -5 -1 -10 4 -10 6 0 11 5 11 10 0 6 -2 10 -4 10 -3 0
-8 -4 -11 -10z"/>
<path d="M490 2006 c0 -2 7 -7 16 -10 8 -3 12 -2 9 4 -6 10 -25 14 -25 6z"/>
<path d="M1170 1998 c0 -11 12 -10 30 2 12 7 10 9 -8 7 -12 0 -22 -5 -22 -9z"/>
<path d="M1082 1984 c10 -10 20 -16 22 -13 3 3 -5 11 -17 18 -21 13 -21 12 -5
-5z"/>
<path d="M2094 1988 c-4 -6 -3 -8 4 -5 15 10 43 -3 35 -16 -4 -6 -1 -7 7 -2
10 6 9 11 -5 22 -23 16 -32 16 -41 1z"/>
<path d="M1033 1975 c0 -8 4 -12 9 -9 5 3 6 10 3 15 -9 13 -12 11 -12 -6z"/>
<path d="M1186 1982 c-3 -5 1 -9 9 -9 8 0 15 4 15 9 0 4 -4 8 -9 8 -6 0 -12
-4 -15 -8z"/>
<path d="M1620 1975 c-7 -9 -10 -18 -6 -22 3 -3 6 -1 6 5 0 6 8 12 18 14 11 2
13 6 6 11 -7 4 -17 0 -24 -8z"/>
<path d="M2050 1979 c0 -5 5 -7 10 -4 6 3 10 8 10 11 0 2 -4 4 -10 4 -5 0 -10
-5 -10 -11z"/>
<path d="M2164 1979 c-4 -7 -3 -9 4 -5 6 3 13 -2 15 -11 4 -16 5 -16 6 -1 1
21 -15 32 -25 17z"/>
<path d="M2240 1980 c-9 -6 -10 -10 -3 -10 6 0 15 5 18 10 8 12 4 12 -15 0z"/>
<path d="M933 1955 c0 -8 4 -15 9 -15 4 0 8 7 8 15 0 8 -4 15 -8 15 -5 0 -9
-7 -9 -15z"/>
<path d="M1370 1962 c0 -5 7 -9 15 -9 8 0 12 4 9 9 -3 4 -9 8 -15 8 -5 0 -9
-4 -9 -8z"/>
<path d="M1436 1958 c3 -5 10 -6 15 -3 13 9 11 12 -6 12 -8 0 -12 -4 -9 -9z"/>
<path d="M2100 1966 c0 -2 8 -10 18 -17 15 -13 16 -12 3 4 -13 16 -21 21 -21
13z"/>
<path d="M1270 1950 c0 -5 5 -10 11 -10 5 0 7 5 4 10 -3 6 -8 10 -11 10 -2 0
-4 -4 -4 -10z"/>
<path d="M1300 1945 c0 -7 30 -13 34 -7 3 4 -4 9 -15 9 -10 1 -19 0 -19 -2z"/>
<path d="M2167 1939 c7 -7 15 -10 18 -7 3 3 -2 9 -12 12 -14 6 -15 5 -6 -5z"/>
<path d="M415 1929 c-4 -6 -5 -12 -2 -15 2 -3 7 2 10 11 7 17 1 20 -8 4z"/>
<path d="M2075 1880 c-3 -5 -1 -10 4 -10 6 0 11 5 11 10 0 6 -2 10 -4 10 -3 0
-8 -4 -11 -10z"/>
<path d="M420 1864 c0 -1 6 -7 14 -13 10 -9 15 -8 19 2 3 8 -3 13 -14 13 -11
0 -19 -1 -19 -2z"/>
<path d="M2145 1860 c-3 -6 1 -7 9 -4 18 7 21 14 7 14 -6 0 -13 -4 -16 -10z"/>
<path d="M2191 1853 c7 -10 15 -20 16 -22 2 -2 3 3 3 11 0 9 -7 19 -16 22 -15
6 -15 4 -3 -11z"/>
<path d="M395 1850 c-3 -5 -1 -10 4 -10 6 0 11 5 11 10 0 6 -2 10 -4 10 -3 0
-8 -4 -11 -10z"/>
<path d="M356 1838 c3 -5 10 -6 15 -3 13 9 11 12 -6 12 -8 0 -12 -4 -9 -9z"/>
<path d="M2100 1838 c0 -4 7 -8 15 -8 8 0 15 4 15 8 0 5 -7 9 -15 9 -8 0 -15
-4 -15 -9z"/>
<path d="M2148 1832 c-16 -22 -49 -23 -66 -2 -10 13 -11 13 -6 -3 4 -10 3 -17
-2 -16 -22 4 -33 -2 -28 -16 4 -8 1 -15 -6 -15 -6 0 -9 4 -6 9 3 5 -1 14 -8
20 -10 9 -16 9 -21 1 -5 -8 -12 -7 -23 1 -13 10 -13 9 1 -7 14 -15 19 -16 26
-5 6 9 8 4 8 -15 0 -16 -2 -23 -4 -16 -3 6 -9 10 -14 6 -5 -3 -9 -1 -9 4 0 6
-7 12 -15 16 -13 5 -14 2 -4 -15 6 -11 8 -23 5 -27 -3 -3 -6 0 -6 7 0 7 -5 9
-12 5 -7 -5 -8 -3 -3 6 5 8 4 11 -3 6 -6 -3 -16 2 -22 11 -10 16 -11 16 -6 1
3 -10 1 -20 -5 -24 -6 -4 -5 -12 3 -22 11 -15 11 -15 -4 -4 -10 8 -19 9 -22 3
-3 -5 0 -12 6 -15 7 -3 2 -3 -12 0 -22 4 -23 3 -9 -8 14 -12 14 -15 -4 -33
-20 -20 -20 -20 -8 2 8 16 8 24 0 29 -8 5 -4 12 10 24 22 16 22 17 4 30 -10 8
-15 11 -11 6 4 -5 3 -17 -3 -27 -8 -15 -14 -17 -29 -9 -16 8 -18 8 -14 -4 3
-8 1 -17 -5 -21 -6 -3 -11 1 -11 9 0 8 -4 18 -10 21 -7 4 -7 -2 0 -19 8 -21 6
-27 -9 -35 -10 -6 -22 -7 -26 -3 -5 4 -5 1 -1 -6 5 -8 13 -9 25 -2 10 5 22 6
26 2 5 -4 4 0 0 8 -8 13 -7 13 8 1 11 -9 17 -10 17 -2 0 6 -5 11 -11 11 -8 0
-7 5 1 15 10 12 15 13 21 4 9 -15 -8 -52 -21 -44 -5 3 -11 1 -15 -5 -4 -6 -11
-8 -16 -4 -5 3 -17 0 -25 -7 -12 -9 -17 -10 -27 0 -9 10 -8 11 8 6 12 -4 15
-3 9 2 -6 4 -14 15 -17 23 -4 11 -6 10 -6 -4 -1 -14 -4 -16 -14 -8 -9 8 -17 8
-27 0 -12 -8 -12 -9 2 -4 12 3 22 -2 29 -17 7 -12 8 -19 4 -15 -5 4 -15 2 -24
-5 -14 -10 -14 -10 -3 4 11 14 9 16 -15 12 -16 -2 -36 -4 -46 -4 -15 0 -16 -2
-2 -15 19 -19 19 -21 0 -21 -8 0 -13 3 -11 6 2 3 -3 12 -12 20 -13 13 -14 11
-9 -15 3 -16 4 -23 1 -16 -3 6 -10 10 -14 7 -5 -3 -7 4 -5 16 2 12 1 18 -3 15
-7 -8 -8 -13 -11 -42 0 -8 -5 -13 -11 -9 -5 3 -7 13 -4 23 4 9 -5 0 -17 -20
-13 -20 -27 -37 -31 -38 -21 -1 -22 -2 -3 -11 l20 -9 -20 2 c-29 3 -66 -12
-60 -23 3 -5 -1 -6 -10 -3 -10 4 -15 2 -13 -7 4 -20 -23 -18 -57 5 -24 16 -27
17 -16 3 8 -10 9 -17 3 -17 -6 0 -16 8 -21 18 -6 10 -11 12 -11 4 0 -7 -4 -10
-10 -7 -5 3 -10 1 -10 -5 0 -7 7 -10 15 -6 8 3 15 1 15 -4 0 -6 -9 -10 -19
-10 -11 0 -22 -6 -25 -12 -3 -7 -3 -2 1 12 5 22 4 23 -11 11 -9 -7 -16 -9 -16
-3 0 5 10 16 22 24 17 11 19 16 8 23 -9 6 -11 4 -5 -5 6 -10 4 -12 -8 -7 -9 3
-16 3 -16 -1 3 -20 -2 -25 -12 -12 -8 12 -9 8 -6 -15 2 -16 2 -24 0 -17 -3 6
-9 12 -14 12 -5 0 -9 -6 -9 -12 0 -9 -3 -10 -8 -2 -4 6 -15 10 -25 8 -9 -1
-15 2 -12 6 3 5 -4 11 -15 15 -23 7 -26 25 -8 44 11 11 9 11 -8 1 -12 -7 -21
-20 -20 -29 1 -20 -26 -21 -31 -1 -4 13 -3 13 6 0 5 -8 13 -11 17 -7 4 3 1 13
-6 22 -7 9 -10 18 -7 22 10 10 -11 40 -33 46 -17 4 -18 2 -10 -13 7 -13 6 -21
-2 -26 -7 -5 -8 -3 -3 6 5 9 2 10 -14 5 -21 -6 -26 2 -21 34 1 13 -1 13 -14 2
-19 -16 -21 -1 -3 19 10 12 9 12 -5 1 -14 -10 -21 -10 -41 3 -13 9 -27 13 -30
10 -10 -10 -38 17 -30 29 4 6 1 7 -6 3 -9 -6 -8 -12 4 -26 14 -16 14 -18 -2
-31 -16 -13 -17 -12 -5 2 10 14 10 18 -4 23 -22 8 -26 8 -19 -3 3 -5 0 -13 -6
-17 -8 -5 -9 -3 -4 6 6 10 4 12 -11 6 -10 -4 -15 -4 -11 0 4 4 1 14 -6 23 -11
14 -10 14 6 2 14 -11 20 -12 30 -2 9 10 8 11 -7 5 -15 -6 -17 -4 -11 7 4 8 5
11 0 7 -4 -4 -14 0 -22 10 -8 9 -12 12 -8 5 6 -13 -15 -53 -29 -53 -4 0 -2 7
5 16 12 15 11 16 -9 10 -12 -4 -22 -3 -22 2 0 17 13 21 31 11 11 -5 19 -7 19
-5 0 3 -9 10 -19 16 -21 11 -54 3 -46 -10 3 -5 1 -11 -4 -14 -10 -7 -9 9 4 36
4 10 12 15 18 11 6 -3 7 -1 3 6 -4 6 -11 9 -15 6 -9 -5 -40 25 -39 38 0 5 -4
12 -8 15 -4 4 -4 2 0 -5 3 -6 2 -14 -4 -18 -6 -4 -8 -11 -4 -16 3 -5 10 -6 16
-3 7 5 8 2 3 -6 -6 -9 -4 -11 5 -5 9 6 11 4 5 -5 -6 -9 -4 -11 4 -5 9 5 9 1
-1 -14 -16 -26 -27 -27 -23 -3 4 25 -6 36 -17 21 -8 -11 -9 -10 -4 4 3 9 1 17
-4 17 -5 0 -7 7 -4 15 7 18 -11 20 -22 3 -4 -7 -3 -8 4 -4 8 5 10 2 6 -8 -3
-9 -10 -16 -16 -16 -5 0 -7 4 -4 9 8 12 -19 33 -29 23 -4 -4 -4 4 0 17 5 17 4
22 -6 19 -8 -3 -13 -15 -13 -27 1 -16 -2 -19 -11 -11 -6 5 -16 6 -21 2 -4 -4
-3 0 2 8 16 21 14 52 -3 45 -45 -18 -46 -18 -38 -6 6 10 3 11 -13 2 -12 -7
-23 -7 -26 -2 -4 5 0 11 6 14 7 2 0 4 -17 4 -16 0 -24 -2 -17 -4 6 -3 9 -10 6
-15 -5 -7 -2 -8 6 -3 9 6 11 4 6 -4 -6 -9 -12 -9 -25 3 -10 9 -21 13 -24 9 -4
-3 -7 -1 -7 6 0 7 -4 9 -10 6 -11 -7 -9 -33 3 -52 8 -13 5 -15 -28 -17 -14 -1
-19 -7 -17 -21 2 -16 1 -17 -7 -5 -5 8 -7 18 -5 22 3 4 -2 5 -10 2 -14 -5 -14
-9 0 -36 10 -19 11 -27 4 -23 -8 5 -11 3 -8 -6 3 -8 11 -13 17 -11 7 1 10 -1
7 -6 -3 -5 1 -17 8 -28 8 -10 12 -24 9 -31 -3 -7 0 -13 6 -13 6 0 11 5 11 10
0 6 5 10 10 10 6 0 9 -6 8 -12 -2 -7 3 -12 10 -10 8 1 11 -2 8 -7 -4 -5 -2
-12 4 -16 6 -3 10 4 10 16 0 34 11 15 12 -20 1 -37 18 -53 19 -19 0 21 1 21 8
4 4 -11 16 -23 27 -28 15 -6 13 -7 -8 -3 -21 4 -26 1 -23 -13 1 -9 0 -11 -2
-4 -3 6 -9 12 -14 12 -6 0 -7 -5 -3 -12 4 -7 3 -8 -4 -4 -13 8 -36 -30 -26
-45 4 -8 0 -8 -14 0 -12 6 -24 17 -28 24 -6 9 -4 9 8 -1 13 -10 17 -10 20 0 3
7 -8 23 -23 36 -20 16 -27 19 -23 8 3 -9 10 -16 16 -16 5 0 6 -5 3 -10 -4 -6
-11 -8 -16 -4 -6 3 -13 -4 -16 -16 -4 -17 -8 -19 -15 -8 -7 10 -8 9 -6 -4 2
-9 0 -17 -4 -17 -23 -2 -28 0 -22 11 5 7 3 8 -6 3 -10 -6 -7 -12 11 -26 13
-10 27 -19 32 -19 4 0 7 -5 7 -11 0 -8 -5 -8 -15 1 -12 10 -16 9 -21 -4 -3 -9
-1 -23 5 -30 8 -10 9 -16 1 -21 -5 -3 -10 -11 -10 -16 0 -6 6 -7 13 -3 9 6 9
4 -1 -8 -8 -10 -9 -17 -2 -20 5 -1 1 -9 -11 -16 -12 -8 -18 -9 -14 -3 3 6 1
11 -5 11 -7 0 -10 -6 -7 -12 2 -7 12 -12 21 -12 9 1 16 -2 16 -7 0 -5 -7 -9
-16 -9 -8 0 -12 -5 -9 -11 4 -6 13 -8 21 -5 8 3 11 0 8 -8 -3 -7 -11 -13 -19
-13 -8 0 -12 4 -10 8 3 4 -2 9 -10 12 -21 9 -7 -21 17 -34 12 -7 16 -15 11
-22 -5 -7 -8 -31 -7 -54 1 -24 -2 -43 -8 -43 -5 0 -6 4 -3 10 4 6 -1 7 -11 3
-12 -4 -14 -8 -5 -11 8 -3 7 -8 -6 -19 -10 -8 -13 -12 -6 -9 15 8 27 -10 13
-19 -5 -3 -10 -12 -10 -18 0 -7 5 -4 11 6 6 9 14 15 20 12 5 -4 9 -1 9 4 0 6
-4 11 -10 11 -5 0 -10 5 -10 10 0 16 17 11 24 -7 4 -11 1 -22 -8 -29 -9 -6
-16 -17 -16 -23 0 -7 -4 -10 -9 -7 -5 4 -4 -5 2 -19 7 -14 17 -23 22 -21 6 2
12 -5 12 -15 2 -17 0 -17 -13 -5 -13 13 -44 12 -44 -1 0 -3 7 -3 15 1 18 7 37
-26 28 -50 -4 -10 -2 -15 3 -11 6 3 11 -4 11 -16 1 -12 -1 -17 -5 -12 -9 13
-27 13 -39 1 -5 -5 -3 -6 5 -2 8 5 13 3 11 -5 -4 -32 2 -51 14 -46 8 3 14 -3
14 -14 2 -17 0 -17 -13 -5 -13 13 -44 12 -44 -1 0 -3 7 -3 15 1 18 6 37 -26
29 -48 -5 -12 -2 -15 12 -10 14 4 15 3 6 -4 -8 -5 -13 -12 -13 -16 1 -3 -2 -6
-6 -6 -5 0 -8 5 -8 12 0 6 -6 12 -13 14 -7 1 -8 0 -2 -3 7 -3 7 -10 -2 -21
-10 -12 -10 -14 0 -8 6 4 12 3 12 -1 0 -5 -6 -15 -12 -22 -10 -11 -10 -13 0
-7 7 5 12 1 12 -9 0 -9 -4 -14 -8 -11 -5 3 -9 -1 -9 -9 0 -8 4 -12 9 -9 4 3 8
1 8 -5 0 -6 8 -8 18 -5 14 5 14 4 2 -4 -8 -6 -17 -9 -21 -6 -9 5 -23 -15 -16
-22 3 -3 15 -1 26 6 12 6 21 7 21 1 0 -10 -30 -25 -44 -22 -5 1 -5 -4 1 -11 6
-7 12 -16 12 -20 1 -5 1 -9 2 -10 6 -15 2 -65 -6 -71 -6 -5 -3 -7 7 -4 23 8
44 -41 24 -55 -5 -3 3 -5 18 -5 24 2 25 3 9 15 -12 9 -13 12 -3 12 9 0 8 5 -6
16 -18 14 -18 15 4 4 12 -6 20 -15 17 -21 -4 -5 -1 -9 5 -9 15 0 7 -25 -8 -26
-7 -1 -16 -2 -22 -3 -5 0 -10 -6 -10 -12 0 -5 4 -8 9 -4 5 3 17 -5 25 -17 9
-12 16 -18 16 -12 0 5 -5 15 -12 22 -9 9 -9 12 -1 12 14 0 26 -18 30 -44 4
-24 13 -35 13 -15 0 9 11 14 32 13 18 -1 35 3 38 7 3 5 19 -3 34 -16 16 -13
37 -27 47 -30 22 -7 25 -21 7 -29 -7 -3 -1 -3 14 -1 15 2 30 -1 33 -6 4 -5 13
-9 21 -9 8 0 12 5 9 10 -4 6 -10 8 -15 5 -5 -3 -11 -1 -15 5 -4 6 -10 8 -14 6
-4 -3 -12 3 -18 13 -9 14 -8 18 3 18 7 0 11 -4 8 -9 -3 -4 0 -8 5 -8 18 0 26
5 23 13 -1 5 2 6 8 2 6 -3 8 -11 5 -16 -4 -5 1 -12 10 -15 9 -4 13 -13 10 -23
-4 -13 1 -17 20 -19 45 -3 55 -5 50 -10 -3 -3 0 -10 5 -17 7 -8 5 -12 -5 -12
-8 0 -12 4 -9 8 2 4 -1 11 -7 15 -8 4 -9 3 -5 -4 5 -8 2 -10 -8 -6 -9 3 -14 9
-11 13 2 4 -2 8 -10 8 -19 0 -19 -5 0 -23 8 -9 15 -13 15 -9 0 4 7 -1 16 -10
11 -11 20 -13 28 -5 7 5 16 7 19 3 4 -3 7 -1 7 5 0 6 -4 14 -10 17 -13 8 -13
25 1 25 5 0 8 -4 5 -9 -8 -12 22 -36 46 -37 32 -2 35 -4 35 -19 0 -8 -4 -15
-9 -15 -4 0 -8 -5 -8 -12 0 -6 3 -8 7 -5 3 4 15 0 25 -10 11 -9 18 -11 18 -5
0 7 -5 12 -12 12 -9 0 -9 3 0 12 18 18 40 18 46 1 5 -12 9 -13 20 -4 11 9 16
9 21 0 6 -8 9 -8 15 0 3 7 7 -2 7 -18 0 -24 -3 -28 -14 -20 -7 6 -11 15 -8 18
2 4 -2 8 -10 8 -20 0 -20 0 21 -41 28 -28 40 -34 48 -25 8 9 8 10 -3 4 -11 -6
-11 -4 -3 10 5 10 17 20 26 21 9 1 14 -2 10 -7 -3 -5 -10 -6 -16 -3 -6 4 -9 1
-6 -7 3 -8 14 -13 24 -11 17 2 17 1 2 -8 -9 -6 -15 -19 -13 -29 3 -16 -2 -18
-28 -15 -25 3 -28 2 -12 -5 11 -5 156 -9 323 -9 251 1 299 3 284 14 -20 14
-38 14 -62 -1 -13 -8 -13 -7 0 10 14 17 13 18 -5 12 -13 -5 -10 0 10 16 25 21
28 27 16 41 -12 15 -8 21 13 17 4 -1 15 6 23 16 8 10 12 13 9 6 -4 -6 -2 -14
3 -17 5 -4 12 2 16 13 3 11 13 25 22 33 9 7 5 -5 -9 -27 -17 -26 -32 -39 -45
-38 -14 2 -19 -4 -18 -25 0 -15 4 -25 10 -22 5 3 8 11 7 19 -2 7 1 10 7 6 6
-3 11 -1 11 5 0 7 9 9 23 5 15 -4 18 -3 8 3 -11 8 -10 14 4 36 10 14 22 26 27
26 6 0 5 -6 -2 -15 -7 -8 -9 -15 -4 -15 5 0 3 -4 -5 -9 -9 -6 -10 -11 -2 -15
6 -4 12 -2 12 3 1 6 2 16 3 23 0 6 7 13 14 16 8 2 10 -2 5 -14 -6 -15 -3 -14
17 4 13 12 29 21 34 21 24 -3 36 2 36 12 0 8 -4 8 -13 1 -10 -8 -13 -6 -14 8
-1 11 2 22 8 25 5 3 6 -1 3 -9 -3 -9 0 -14 8 -12 20 3 39 17 34 25 -9 13 19 8
32 -6 13 -13 12 -14 -27 -17 -8 -1 -15 -9 -17 -18 -2 -16 0 -16 22 -1 13 8 24
11 24 7 0 -5 5 -2 10 6 6 10 4 23 -7 40 -15 23 -15 24 0 11 14 -11 21 -10 46
12 17 14 28 28 25 31 -2 3 -1 4 3 1 3 -3 18 5 32 17 14 13 19 15 12 6 -12 -16
-11 -18 3 -18 10 0 15 -4 11 -9 -3 -6 -15 -8 -27 -6 -16 4 -19 2 -10 -7 14
-14 44 -20 37 -7 -3 4 3 14 15 21 11 7 20 17 20 22 0 4 -7 3 -15 -4 -10 -9
-15 -9 -15 -1 0 6 4 11 10 11 5 0 9 5 7 11 -1 6 4 13 11 15 7 1 8 0 2 -3 -5
-2 -8 -9 -5 -14 4 -5 17 -2 30 7 18 11 25 12 31 3 4 -8 3 -9 -4 -5 -7 4 -12 2
-12 -3 0 -6 -5 -10 -11 -8 -18 3 -22 -20 -5 -26 9 -4 15 -1 13 6 -1 7 5 11 14
11 12 -1 16 5 14 22 -2 19 1 22 15 14 13 -7 22 -2 39 20 12 17 26 30 32 30 6
0 1 -9 -12 -20 -13 -10 -19 -19 -12 -20 6 0 15 5 19 11 3 6 15 9 25 6 10 -3
22 -1 25 4 3 5 10 7 15 3 5 -3 8 0 7 8 -2 7 3 12 11 10 12 -3 12 -1 0 14 -13
16 -12 17 6 10 15 -5 17 -4 8 5 -13 13 -37 3 -27 -12 3 -5 2 -9 -3 -8 -4 1
-15 1 -23 0 -12 -1 -13 -3 -1 -10 7 -5 9 -11 4 -14 -5 -3 -15 3 -22 15 -7 11
-8 17 -2 13 9 -5 14 8 10 31 -1 3 11 18 25 33 15 15 23 31 19 36 -5 4 -1 4 7
-1 36 -21 62 -6 38 23 -11 15 -11 16 5 10 11 -4 16 -3 12 3 -4 6 -12 10 -18 9
-34 -4 -40 2 -18 18 23 15 23 17 6 30 -11 7 -14 13 -8 13 18 0 23 41 6 47 -12
5 -12 7 -1 14 7 5 18 9 23 9 6 0 3 -5 -5 -10 -12 -7 -10 -9 7 -7 21 1 21 3 6
19 -8 10 -20 15 -24 12 -5 -3 -6 2 -3 10 3 9 10 16 16 16 5 0 7 -4 4 -8 -3 -5
2 -9 11 -9 13 0 12 4 -5 18 -23 18 -29 31 -13 26 5 -1 9 3 9 8 0 6 -4 9 -9 8
-5 -2 -9 3 -10 10 0 6 -2 20 -4 30 -2 9 1 15 6 11 5 -3 9 2 9 11 0 9 -4 13
-10 10 -5 -3 -10 -1 -10 5 0 6 6 10 13 9 22 -3 37 1 37 10 0 4 -10 8 -22 7
-19 -1 -22 4 -21 37 1 55 2 57 14 57 8 0 8 -4 0 -14 -9 -10 -8 -15 2 -19 19
-7 15 27 -6 47 -13 14 -15 22 -6 37 9 17 13 18 27 7 15 -12 16 -11 3 5 -11 14
-11 17 0 17 9 1 8 4 -4 11 -15 9 -16 13 -5 27 10 12 10 14 1 8 -8 -4 -13 -2
-13 5 0 8 -5 7 -17 -2 -16 -13 -17 -12 -4 4 11 13 11 17 1 17 -8 0 -11 3 -8 6
4 3 16 0 28 -6 16 -9 20 -9 15 -1 -4 7 -1 18 5 26 8 9 8 15 2 15 -6 0 -12 -6
-15 -12 -2 -7 -8 -10 -11 -6 -4 3 2 16 15 29 15 15 17 20 6 16 -8 -3 -18 -3
-20 1 -2 4 -3 2 -1 -3 1 -6 -4 -19 -12 -30 -8 -10 -14 -14 -14 -8 0 7 5 15 10
18 7 4 6 13 -1 26 -6 13 -7 25 -1 32 9 12 9 25 0 57 -3 8 -3 11 0 7 2 -4 10
-3 16 2 9 8 13 7 13 -4 0 -8 -4 -12 -9 -9 -4 3 -8 1 -8 -3 0 -5 9 -14 21 -21
17 -11 20 -11 13 0 -13 21 -13 38 -1 38 7 0 6 4 -3 9 -8 6 -18 7 -22 5 -4 -3
-8 0 -8 6 0 6 -5 8 -12 4 -6 -4 -8 -3 -5 4 8 12 25 11 47 -3 13 -8 13 -7 1 8
-7 9 -17 14 -22 11 -5 -3 -9 4 -9 16 0 14 -4 19 -12 14 -9 -5 -10 -4 -3 4 6 5
19 13 30 16 11 3 6 4 -12 2 -18 -1 -30 1 -27 6 3 4 11 8 19 8 7 0 12 8 11 18
-2 9 2 20 8 24 8 5 7 8 -1 8 -7 0 -13 5 -13 11 0 5 5 7 12 3 7 -4 8 -3 4 4
-10 16 -14 15 -27 -9 -6 -12 -7 -19 -2 -16 5 4 10 0 10 -7 0 -18 -34 -39 -42
-26 -4 6 -1 9 6 8 21 -5 20 19 -1 25 -11 3 -20 9 -19 14 4 22 -2 34 -13 27 -7
-4 -10 -4 -6 1 4 4 3 15 -2 25 -6 12 -5 17 4 17 7 0 13 -7 12 -16 0 -9 5 -15
12 -14 6 2 12 -1 12 -5 0 -5 7 -9 15 -9 8 0 15 4 15 9 0 4 -6 8 -14 8 -8 0
-18 9 -21 21 -4 12 -12 18 -21 15 -7 -3 -16 -1 -19 4 -4 6 0 10 7 10 10 0 10
2 -1 9 -19 12 -44 7 -49 -10 -3 -12 -2 -12 6 0 6 8 12 9 16 3 6 -9 -21 -27
-36 -24 -5 1 -8 -3 -8 -10 0 -6 -3 -8 -6 -5 -4 4 -1 13 6 22 7 9 9 19 5 23 -4
4 -10 1 -12 -5 -3 -7 -9 -13 -14 -13 -6 0 -7 5 -4 10 3 6 2 10 -4 10 -6 0 -16
10 -22 23 l-11 22 21 -22 c20 -22 58 -22 44 0 -3 5 -1 7 4 4 6 -4 14 0 17 9 9
24 7 28 -7 15 -8 -6 -17 -8 -20 -4 -4 3 -7 -1 -7 -10 0 -10 -4 -17 -10 -17 -5
0 -6 7 -3 17 4 10 2 14 -5 9 -6 -3 -13 -3 -16 2 -3 5 9 8 27 8 26 -1 32 3 30
19 -1 19 -1 19 12 2 7 -11 16 -14 19 -8 4 5 15 9 26 8 10 -1 17 -4 14 -8 -2
-4 3 -12 11 -19 10 -9 15 -9 15 -1 0 6 -6 11 -12 11 -7 1 -2 7 12 14 14 8 28
12 32 10 5 -3 8 0 8 6 0 7 -9 9 -22 5 -20 -6 -20 -3 7 22 l30 28 -22 23 c-12
13 -19 30 -16 38 3 8 1 14 -5 12 -9 -3 -12 1 -12 18 0 4 6 1 14 -5 11 -9 16
-9 22 0 5 8 3 9 -6 4 -10 -6 -12 -4 -7 8 3 9 2 19 -4 22 -5 4 -7 11 -4 16 3 5
-2 6 -11 2 -13 -5 -15 -3 -9 8 7 12 6 12 -7 1 -14 -11 -18 -10 -28 5 -10 16
-11 16 -6 1 4 -13 0 -18 -14 -18 -18 0 -24 -10 -21 -32 1 -11 -30 -2 -38 11
-12 19 -19 18 -33 -2 -13 -18 -14 -18 -14 0 0 14 8 19 32 19 24 0 31 -4 27
-16 -3 -10 1 -9 11 4 9 11 16 24 16 29 0 4 4 6 8 3 5 -3 9 1 9 9 0 19 -3 19
-19 -3z m-1692 -35 c1 -9 -3 -14 -11 -11 -20 8 -26 32 -8 30 9 -2 17 -10 19
-19z m113 -3 c-8 -10 -16 -11 -29 -4 -10 6 -26 7 -34 4 -9 -3 -16 -2 -16 3 0
4 20 9 45 10 38 1 44 -2 34 -13z m1675 -5 c8 -9 7 -10 -6 -6 -11 4 -19 0 -23
-13 -6 -19 -6 -19 -26 1 -25 25 -25 37 1 14 21 -19 28 -7 8 13 -9 9 -6 10 12
7 13 -2 28 -10 34 -16z m-274 -57 c0 -1 -9 2 -20 8 -11 6 -20 15 -20 20 0 6 9
2 20 -7 11 -10 20 -19 20 -21z m275 -82 c-14 -14 -22 -30 -18 -35 5 -4 0 -5
-10 -2 -10 4 -24 7 -30 8 -7 1 -1 4 12 8 15 4 25 15 28 29 2 16 -1 21 -9 16
-7 -4 -8 -3 -4 4 4 6 14 8 24 5 15 -6 16 -5 2 13 -14 19 -14 19 8 0 l22 -19
-25 -27z m-1307 -20 c-7 -11 -17 -20 -22 -20 -5 0 -1 9 9 20 10 11 20 20 22
20 2 0 -2 -9 -9 -20z m52 -23 c11 -21 11 -21 -4 -3 -9 11 -16 16 -16 12 0 -4
-5 -4 -10 -1 -6 4 -8 11 -4 16 7 12 22 3 34 -24z m695 15 c-3 -3 -11 0 -18 7
-9 10 -8 11 6 5 10 -3 15 -9 12 -12z m-1164 -39 c-12 -20 -14 -14 -5 12 4 9 9
14 11 11 3 -2 0 -13 -6 -23z m583 2 c3 -8 1 -15 -5 -15 -6 0 -8 -4 -5 -9 3 -5
-1 -12 -9 -15 -13 -4 -14 -2 -5 14 6 11 8 25 5 30 -3 6 -2 10 3 10 6 0 12 -7
16 -15z m468 -19 c7 4 8 2 4 -5 -9 -13 -26 -5 -25 12 0 9 2 8 6 -1 2 -6 10 -9
15 -6z m-997 -26 c-3 -5 -12 -10 -18 -10 -7 0 -6 4 3 10 19 12 23 12 15 0z
m1465 4 c0 -8 -19 -13 -24 -6 -3 5 1 9 9 9 8 0 15 -2 15 -3z m-553 -33 c0 -11
-5 -18 -9 -15 -4 3 -5 11 -1 19 7 21 12 19 10 -4z m587 11 c3 -5 -1 -9 -9 -9
-8 0 -15 4 -15 9 0 4 4 8 9 8 6 0 12 -4 15 -8z m103 -32 c2 -20 -8 -26 -20
-13 -4 3 -2 12 4 20 15 17 14 17 16 -7z m-1784 -17 c-4 -10 -2 -14 4 -10 6 4
17 -1 24 -10 12 -15 12 -16 -1 -8 -8 5 -23 11 -34 12 -16 3 -17 1 -5 -14 12
-16 12 -17 -2 -6 -9 7 -20 9 -25 5 -5 -4 -1 2 9 14 9 11 17 26 17 33 0 7 4 10
10 6 5 -3 6 -13 3 -22z m89 13 c7 4 8 2 4 -5 -9 -13 -26 -5 -25 12 0 9 2 8 6
-1 2 -6 10 -9 15 -6z m279 -63 c-12 -20 -14 -14 -5 12 4 9 9 14 11 11 3 -2 0
-13 -6 -23z m973 -1 c2 -4 -4 -8 -14 -8 -10 0 -16 4 -14 8 3 4 9 8 14 8 5 0
11 -4 14 -8z m55 5 c-2 -1 -13 -9 -24 -17 -19 -14 -19 -14 -6 3 7 9 18 17 24
17 6 0 8 -1 6 -3z m-1006 -32 c-4 -11 0 -14 13 -9 15 5 16 4 4 -4 -18 -14 -29
-7 -27 18 1 10 5 17 9 14 4 -3 5 -11 1 -19z m-69 7 c3 -5 -1 -9 -9 -9 -8 0
-12 4 -9 9 3 4 7 8 9 8 2 0 6 -4 9 -8z m116 -8 c0 -8 5 -12 10 -9 6 3 10 1 10
-4 0 -18 -19 -12 -30 9 -7 14 -7 20 0 20 5 0 10 -7 10 -16z m45 6 c3 -5 1 -10
-4 -10 -6 0 -11 5 -11 10 0 6 2 10 4 10 3 0 8 -4 11 -10z m51 -15 c1 -8 -2
-15 -6 -15 -5 0 -8 9 -7 20 1 21 10 18 13 -5z m859 8 c-1 -12 -10 -17 -24 -16
-15 2 -20 -1 -15 -9 4 -7 3 -8 -5 -4 -18 11 -2 28 20 21 11 -4 19 -3 18 2 -2
12 0 23 5 23 2 0 3 -8 1 -17z m85 11 c0 -8 -19 -13 -24 -6 -3 5 1 9 9 9 8 0
15 -2 15 -3z m-1122 -39 c-3 -3 -9 2 -12 12 -6 14 -5 15 5 6 7 -7 10 -15 7
-18z m972 6 c7 -15 7 -22 -2 -27 -7 -4 -10 -4 -6 1 4 4 3 16 -3 26 -5 11 -7
19 -5 19 3 0 10 -9 16 -19z m184 10 c-9 -9 -34 -9 -34 -1 0 5 9 8 20 7 10 -1
17 -3 14 -6z m-1137 -33 c-3 -8 -6 -5 -6 6 -1 11 2 17 5 13 3 -3 4 -12 1 -19z
m57 14 c2 -4 0 -14 -6 -22 -8 -12 -9 -12 -4 3 3 9 3 17 -1 17 -3 0 -12 -8 -20
-17 -13 -16 -13 -16 -3 5 11 22 25 28 34 14z m62 -10 c1 -7 0 -8 -3 -2 -2 5
-9 10 -14 10 -6 0 -7 -5 -3 -12 4 -7 3 -8 -5 -4 -14 9 -4 29 12 23 6 -2 12 -9
13 -15z m919 8 c-27 -12 -43 -12 -25 0 8 5 22 9 30 9 10 0 8 -3 -5 -9z m-860
-9 c3 -5 2 -12 -3 -15 -5 -3 -9 1 -9 9 0 17 3 19 12 6z m810 -11 c-3 -5 -12
-10 -18 -10 -7 0 -6 4 3 10 19 12 23 12 15 0z m60 0 c-3 -5 -12 -10 -18 -10
-7 0 -6 4 3 10 19 12 23 12 15 0z m-652 -100 c-7 -27 -13 -25 -11 4 1 14 5 23
9 20 4 -2 5 -13 2 -24z m121 18 c-3 -5 -10 -5 -16 -2 -6 4 -9 1 -6 -6 7 -23
26 -22 33 0 4 12 9 19 12 17 2 -3 0 -15 -7 -26 -7 -15 -7 -21 0 -21 6 0 13 7
16 15 4 8 10 15 16 15 5 0 7 -4 4 -8 -2 -4 5 -14 16 -21 18 -11 20 -11 15 2
-8 21 17 55 28 37 5 -8 4 -11 -2 -7 -19 12 -22 -21 -4 -37 17 -16 19 -16 25 0
4 9 9 14 13 11 3 -4 0 -13 -6 -21 -7 -8 -10 -21 -6 -28 4 -7 -1 -4 -10 7 -18
23 -59 30 -51 9 3 -7 0 -16 -6 -20 -7 -4 -8 -3 -4 4 4 7 2 12 -5 12 -8 0 -8 4
1 15 7 8 8 15 2 15 -18 0 -33 -25 -20 -38 10 -10 6 -10 -31 -3 -2 1 2 8 9 16
16 19 7 19 -29 1 -29 -16 -59 -7 -46 14 5 8 3 11 -6 8 -8 -3 -13 -15 -12 -27
2 -11 -1 -21 -6 -21 -9 0 -8 23 4 58 7 21 8 21 20 5 7 -10 11 -22 8 -28 -3 -5
0 -5 7 2 11 10 11 15 -1 29 -8 10 -9 15 -3 11 7 -4 14 -1 17 6 3 8 12 14 21
14 8 0 13 -4 10 -9z m-84 -17 c0 -5 -7 -14 -15 -21 -8 -7 -13 -16 -10 -19 2
-4 -2 -8 -10 -8 -20 0 -19 10 4 27 11 7 18 17 15 22 -3 4 0 8 5 8 6 0 11 -4
11 -9z m215 -1 c-3 -5 -12 -10 -18 -10 -7 0 -6 4 3 10 19 12 23 12 15 0z m70
-10 c-3 -5 -12 -10 -18 -10 -7 0 -6 4 3 10 19 12 23 12 15 0z m-352 -17 c-7
-2 -19 -2 -25 0 -7 3 -2 5 12 5 14 0 19 -2 13 -5z m346 -17 c9 -11 9 -16 0
-22 -7 -4 -9 -3 -5 4 3 6 -2 15 -11 21 -10 6 -13 11 -7 11 6 0 17 -6 23 -14z
m-344 -14 c-3 -3 -11 0 -18 7 -9 10 -8 11 6 5 10 -3 15 -9 12 -12z m315 -3 c0
-6 -4 -7 -10 -4 -5 3 -10 11 -10 16 0 6 5 7 10 4 6 -3 10 -11 10 -16z m-165
-9 c3 -5 1 -10 -4 -10 -6 0 -11 5 -11 10 0 6 2 10 4 10 3 0 8 -4 11 -10z m682
-25 c0 -8 -4 -12 -9 -9 -5 3 -6 10 -3 15 9 13 12 11 12 -6z m-1233 -6 c-2 -4
8 -7 23 -7 16 0 34 0 41 -1 17 -2 15 -18 -3 -18 -8 0 -12 3 -10 6 2 4 -12 6
-32 6 -20 -1 -39 -8 -44 -16 -5 -11 -4 -16 5 -16 8 0 12 7 8 15 -4 11 -1 13 8
7 7 -4 27 -9 44 -9 22 -2 31 -7 30 -19 -1 -9 3 -14 8 -11 5 3 7 12 4 20 -3 8
-1 14 5 14 6 0 8 4 5 8 -2 4 4 8 14 8 10 0 17 -4 14 -7 -2 -4 6 -15 18 -23 18
-13 20 -18 9 -28 -11 -11 -12 -10 -6 1 6 10 4 12 -5 6 -9 -6 -11 -4 -5 5 6 9
4 11 -5 5 -9 -6 -11 -4 -5 5 6 9 4 11 -5 5 -9 -5 -11 -4 -6 3 4 7 2 12 -3 12
-6 0 -11 -3 -11 -7 1 -13 38 -54 47 -52 22 4 25 -3 7 -17 -18 -15 -18 -15 3
-4 12 5 25 15 29 22 5 7 3 8 -6 3 -9 -6 -11 -4 -5 5 6 9 4 11 -5 5 -9 -5 -11
-4 -6 4 4 6 12 9 17 6 5 -4 9 -2 9 4 0 5 -5 12 -10 14 -6 3 -5 4 2 3 7 -2 13
-10 13 -19 0 -9 6 -22 14 -29 12 -11 13 -10 7 7 -6 18 -5 19 7 3 8 -10 17 -15
20 -11 4 3 7 2 7 -4 0 -14 -28 -25 -35 -13 -7 11 -35 2 -35 -12 0 -5 5 -6 10
-3 14 9 12 -8 -2 -25 -11 -12 -10 -12 3 -2 9 6 19 9 23 5 4 -4 4 1 1 12 -6 17
-3 16 15 -5 21 -23 23 -24 35 -7 10 13 14 15 17 5 4 -10 9 -10 23 2 17 13 18
13 10 0 -12 -20 -15 -41 -5 -35 5 3 11 -1 14 -7 3 -7 3 -2 -1 12 -5 21 -4 23
9 12 9 -7 23 -9 34 -5 16 6 17 5 4 -9 -8 -9 -18 -14 -22 -11 -5 2 -8 0 -8 -5
0 -6 7 -13 16 -16 8 -3 13 -10 10 -15 -7 -11 20 -8 31 4 4 4 2 5 -6 0 -10 -6
-12 -4 -6 5 6 9 4 11 -5 5 -9 -6 -11 -4 -5 5 6 9 4 11 -5 5 -9 -6 -11 -4 -6 4
6 9 13 8 29 -6 32 -26 34 -32 29 -60 -4 -21 -2 -25 12 -20 9 4 16 3 16 -2 0
-5 -9 -11 -20 -14 -11 -3 -18 -2 -15 3 3 4 -3 14 -13 21 -14 11 -15 11 -5 0 6
-7 9 -20 6 -28 -4 -9 0 -14 8 -13 26 4 37 0 43 -16 5 -14 4 -15 -9 -4 -9 8
-15 9 -15 2 0 -6 8 -16 18 -22 16 -11 16 -11 0 -6 -10 3 -18 1 -18 -4 0 -5 -8
-7 -17 -4 -12 4 -14 3 -6 -3 7 -5 12 -22 11 -38 -1 -48 1 -57 13 -49 8 4 7 9
-2 16 -11 8 -11 9 1 5 8 -2 20 3 26 11 9 12 13 12 19 2 5 -9 4 -11 -3 -6 -11
7 -17 -6 -13 -27 1 -5 -3 -6 -8 -3 -11 7 -37 -22 -28 -31 4 -3 1 -13 -6 -21
-9 -13 -9 -14 1 -8 6 4 12 2 12 -3 0 -6 -4 -11 -10 -11 -10 0 -8 -35 3 -46 3
-4 4 3 2 15 -3 15 0 19 8 15 7 -4 9 -4 5 1 -4 4 -3 17 3 28 7 12 7 17 1 13 -6
-3 -9 2 -8 11 2 9 9 19 17 21 11 3 11 1 -1 -7 -9 -7 -10 -11 -3 -11 6 0 11 -9
10 -20 -1 -11 -5 -20 -10 -20 -4 0 -6 -4 -2 -9 3 -5 1 -12 -4 -16 -6 -3 -8
-12 -4 -20 3 -8 0 -15 -5 -15 -6 0 -10 -8 -10 -17 0 -10 -1 -24 -3 -32 -2 -7
3 -16 11 -18 13 -4 13 -3 0 7 -13 10 -13 11 0 7 10 -2 15 -15 14 -35 0 -18 3
-32 8 -32 4 0 -1 -9 -12 -20 -12 -12 -18 -25 -15 -30 8 -13 -17 -19 -38 -8
-12 6 -16 5 -15 -3 2 -7 -8 -16 -22 -20 -14 -4 -18 -7 -9 -8 9 -1 20 -9 24
-18 5 -15 4 -16 -6 -6 -14 14 -43 18 -35 5 2 -4 -4 -8 -14 -8 -10 0 -16 4 -14
8 3 4 3 8 0 8 -2 0 -13 3 -23 7 -16 6 -17 5 -3 -13 14 -17 14 -18 -2 -6 -9 7
-18 9 -20 5 -3 -4 -4 -3 -2 4 1 6 -8 14 -22 17 -23 6 -34 26 -14 26 6 0 10 5
10 11 0 8 -6 7 -16 -2 -15 -12 -16 -11 -9 11 9 29 3 25 -15 -9 -8 -15 -8 -21
-1 -17 6 4 11 2 11 -4 0 -6 -8 -10 -17 -8 -12 2 -17 -2 -15 -12 2 -8 0 -11 -4
-7 -11 10 -14 38 -4 32 4 -3 10 4 13 15 6 24 -27 48 -39 28 -5 -7 -3 -8 6 -3
9 5 11 4 6 -3 -5 -8 -1 -10 11 -6 16 6 16 5 -2 -9 -14 -11 -25 -12 -42 -4 -12
5 -20 14 -17 18 8 14 -10 11 -25 -3 -10 -11 -11 -10 -6 4 4 9 15 18 26 21 12
3 17 1 12 -5 -3 -7 -1 -8 5 -4 8 5 10 2 6 -8 -3 -9 -2 -16 3 -16 5 0 9 9 10
20 1 11 -2 20 -8 20 -5 0 -9 8 -10 18 0 14 -2 14 -7 2 -8 -17 -32 -25 -32 -10
0 14 -43 12 -60 -2 -12 -11 -12 -10 -1 5 7 9 12 17 10 18 -2 0 -13 3 -24 5
-11 3 -26 6 -32 6 -10 1 -10 5 -1 16 10 11 14 12 23 0 10 -13 26 -19 57 -22
10 -1 21 -5 24 -9 11 -10 24 -8 24 4 0 5 -4 8 -9 5 -5 -3 -14 0 -20 8 -6 7
-23 14 -37 14 -15 0 -30 5 -34 12 -6 9 -13 9 -28 1 -15 -8 -23 -7 -32 4 -11
13 -14 13 -27 -2 -14 -17 -14 -17 -9 0 3 10 0 17 -7 17 -8 0 -7 4 3 10 8 5 19
5 25 0 6 -5 17 -5 25 2 12 8 12 9 -3 4 -12 -4 -20 1 -26 17 -5 12 -7 25 -4 30
2 4 -1 7 -7 7 -7 0 -9 -8 -5 -19 4 -14 0 -23 -14 -30 -24 -13 -42 -14 -22 -2
11 7 9 10 -8 16 -11 3 -21 11 -21 16 0 6 4 8 9 4 6 -3 9 4 8 15 -1 22 -13 27
-20 8 -2 -8 -8 -9 -13 -4 -5 5 -4 11 4 13 6 3 9 9 6 15 -4 6 1 6 14 -1 16 -8
21 -7 26 6 6 14 -8 32 -25 33 -12 0 -5 29 9 35 8 3 11 12 8 20 -3 8 -1 15 4
15 6 0 10 5 10 11 0 6 -5 7 -12 2 -7 -4 -16 -8 -20 -8 -5 0 -8 -4 -7 -10 1 -5
5 -9 10 -7 5 1 9 -3 9 -9 0 -6 -6 -9 -14 -6 -10 4 -14 0 -11 -12 5 -24 -20
-22 -35 3 -10 17 -10 19 1 9 7 -7 17 -13 21 -13 11 0 6 23 -7 32 -6 5 -5 8 3
8 7 0 10 5 7 10 -5 8 -12 7 -23 -2 -15 -11 -15 -11 -5 3 7 9 9 20 5 24 -4 5
-1 5 6 1 6 -4 12 -3 12 3 0 5 -3 11 -7 14 -5 2 -2 2 5 1 16 -4 16 8 0 25 -11
11 -10 12 1 6 8 -4 25 -9 38 -11 23 -2 24 -2 8 22 -11 17 -12 24 -3 24 7 0 3
7 -9 15 -14 10 -20 21 -16 32 4 11 2 14 -5 9 -6 -3 -16 3 -22 14 -6 11 -16 17
-22 14 -7 -4 -8 -2 -4 5 6 9 11 9 21 1 8 -7 20 -8 26 -4 8 5 9 3 4 -6 -5 -8
-4 -11 3 -6 6 4 9 -3 8 -19 -2 -13 1 -22 5 -19 5 3 9 0 9 -5 0 -6 4 -11 8 -11
5 0 9 7 9 15 0 8 -4 12 -8 10 -19 -12 -15 25 4 39 21 16 21 16 1 7 -21 -10
-34 -6 -34 11 0 5 5 6 10 3 6 -3 10 -1 10 4 0 14 -17 14 -25 1 -3 -5 -12 -10
-18 -9 -9 0 -9 2 1 6 6 2 12 9 12 14 0 6 -4 8 -9 4 -5 -3 -12 -1 -15 4 -4 5
-2 12 4 16 6 4 8 11 4 16 -3 5 -9 7 -14 4 -5 -3 -11 -1 -14 4 -7 10 9 9 37 -4
9 -4 17 -11 17 -17 0 -5 -5 -6 -12 -2 -7 4 -8 3 -4 -5 4 -6 12 -9 17 -6 5 4
15 3 22 -2 14 -9 41 -14 34 -6 -3 2 -7 3 -10 1 -3 -2 -15 6 -26 17 l-22 19 23
18 23 18 -25 -4 c-14 -2 -24 -9 -22 -16 1 -6 -2 -9 -8 -5 -6 3 -8 11 -5 16 4
5 -1 9 -9 9 -9 0 -16 4 -16 10 0 5 7 6 17 3 12 -5 14 -3 8 8 -4 8 -5 11 0 7 4
-4 14 -3 22 3 7 6 13 8 13 4 0 -4 -8 -14 -17 -22 -16 -13 -16 -13 3 -4 12 6
24 8 27 4 4 -3 13 -1 20 5 8 7 17 9 20 5 4 -3 7 -1 7 5 0 6 -9 10 -19 9 -11 0
-17 -5 -15 -9 3 -4 0 -8 -5 -8 -6 0 -11 9 -11 21 0 11 -4 18 -9 15 -5 -3 -15
2 -22 12 -13 15 -12 16 4 3 9 -7 17 -10 17 -6 0 4 7 2 15 -5 8 -6 19 -9 24 -5
6 3 20 1 32 -6 15 -8 19 -8 15 0 -4 6 -2 11 3 11 6 0 11 5 11 12 0 9 -3 9 -12
0 -7 -7 -17 -12 -22 -12 -6 0 -3 7 7 14 9 7 31 12 48 10 16 -2 28 0 25 4 -3 5
1 9 9 9 8 0 12 -4 9 -8z m1200 -1 c-3 -4 0 -8 5 -8 6 0 11 -5 11 -10 0 -6 12
-22 26 -35 15 -14 23 -25 19 -25 -4 0 2 -9 15 -20 23 -20 45 -18 37 3 -2 7 0
23 5 35 6 18 5 23 -4 19 -7 -2 -12 -11 -12 -20 1 -10 -3 -14 -10 -10 -6 3 -6
0 2 -8 17 -19 15 -34 -3 -19 -9 8 -13 21 -10 34 5 15 4 17 -3 7 -6 -8 -12 -9
-16 -3 -6 10 13 22 43 28 24 5 31 -5 21 -31 -6 -16 -6 -27 2 -31 7 -4 5 -10
-5 -16 -9 -5 -14 -15 -11 -23 4 -8 11 -12 17 -8 6 4 7 1 1 -8 -5 -8 -10 -25
-11 -39 -3 -20 -1 -22 7 -10 5 8 10 10 10 4 0 -6 -3 -14 -7 -18 -5 -4 -8 -13
-8 -19 0 -5 -6 -12 -12 -14 -7 -3 -13 0 -13 7 0 6 4 9 9 6 10 -7 9 20 -2 30
-4 4 -2 12 3 19 7 8 5 12 -5 12 -8 0 -12 -4 -9 -9 3 -4 0 -8 -7 -8 -7 0 -5 -6
6 -13 12 -10 14 -16 7 -21 -7 -4 -12 -2 -12 3 0 6 -5 11 -10 11 -7 0 -6 -8 2
-22 7 -13 13 -38 14 -56 2 -27 0 -31 -11 -22 -8 6 -11 18 -8 26 3 8 -1 14 -8
14 -7 0 -9 -3 -6 -7 4 -3 1 -13 -6 -21 -8 -11 -8 -13 0 -9 6 4 25 -9 44 -33
18 -21 37 -36 42 -33 6 3 5 -2 0 -12 -6 -10 -8 -25 -6 -35 2 -9 -3 -22 -11
-29 -19 -16 -21 -32 -5 -29 6 2 12 -7 14 -19 1 -15 -3 -19 -13 -15 -9 3 -13 1
-9 -5 4 -6 -3 -23 -14 -37 l-21 -27 26 7 c17 4 26 2 26 -6 0 -6 -4 -8 -10 -5
-5 3 -19 1 -31 -6 -15 -8 -19 -8 -15 0 4 6 0 11 -9 11 -9 0 -13 5 -10 10 4 6
11 8 16 4 5 -3 8 0 7 8 -2 7 3 12 10 10 6 -1 12 2 12 8 0 5 -4 10 -10 10 -5 0
-12 0 -15 0 -3 0 -6 -3 -7 -7 -1 -5 -8 -14 -15 -21 -7 -8 -10 -19 -6 -25 13
-21 10 -55 -4 -50 -10 4 -10 9 -3 18 7 9 5 16 -7 26 -16 13 -17 12 -4 -3 15
-21 2 -24 -18 -5 -8 7 -11 7 -8 1 4 -7 0 -17 -8 -24 -12 -10 -15 -10 -15 1 0
12 -2 12 -9 0 -5 -7 -7 -23 -4 -35 4 -19 3 -19 -10 3 -12 20 -15 21 -20 7 -4
-10 -3 -15 1 -12 5 3 9 0 9 -7 0 -7 -12 -13 -25 -14 -18 -1 -21 1 -11 8 8 5 9
9 3 9 -19 0 -24 -13 -11 -28 10 -13 9 -14 -9 -4 -12 6 -26 7 -34 2 -8 -5 -18
-6 -22 -4 -13 9 -9 -4 8 -20 9 -9 11 -16 4 -16 -6 0 -9 -4 -5 -9 3 -5 1 -12
-4 -15 -5 -4 -12 -2 -15 2 -3 5 -18 7 -32 4 -19 -3 -25 -1 -20 7 4 6 2 11 -3
11 -13 0 -13 -3 -5 -24 3 -8 13 -13 22 -10 14 5 14 4 -1 -6 -9 -6 -15 -15 -12
-20 3 -5 0 -12 -6 -16 -8 -4 -9 -3 -5 4 6 11 -6 16 -26 13 -12 -2 -10 17 2 24
6 3 10 1 10 -4 0 -6 5 -11 11 -11 8 0 8 4 -1 14 -17 21 -43 8 -38 -19 4 -21 3
-21 -23 -8 -20 10 -34 11 -46 5 -13 -8 -21 -6 -30 6 -12 15 -12 15 -6 -3 l6
-20 -24 20 c-13 11 -18 13 -11 4 6 -9 9 -18 6 -21 -3 -3 11 -4 30 -2 34 3 45
-4 30 -19 -4 -4 -12 -3 -18 0 -16 11 -56 11 -56 1 0 -4 -5 -8 -11 -8 -8 0 -8
5 1 15 13 16 9 25 -33 67 -9 10 -16 28 -14 41 2 12 2 16 0 10 -3 -7 -10 -13
-16 -13 -8 0 -7 -4 1 -12 15 -15 15 -28 0 -28 -6 0 -8 3 -5 7 10 10 -14 34
-27 26 -6 -3 -8 -2 -3 2 4 5 -1 18 -10 29 -10 12 -11 15 -3 9 19 -18 35 -16
20 1 -10 13 -7 14 14 10 15 -2 26 0 26 6 0 6 -5 8 -11 4 -8 -5 -10 1 -7 19 3
14 2 26 -1 25 -19 -2 -22 4 -11 18 11 13 10 16 -8 21 -12 3 -22 9 -22 14 0 5
7 5 17 2 10 -4 14 -2 9 5 -3 6 -2 13 3 16 5 4 13 1 17 -5 5 -8 3 -9 -7 -4 -11
6 -12 5 -2 -5 15 -16 28 -7 17 12 -12 19 -11 32 4 43 7 6 10 18 6 28 -8 21
-21 22 -21 2 0 -8 4 -12 9 -9 4 3 8 0 8 -6 0 -7 -6 -10 -14 -7 -11 4 -13 0
-11 -15 3 -11 2 -18 -2 -15 -3 4 -12 -1 -20 -11 -10 -13 -13 -14 -11 -2 2 8
10 20 18 27 8 7 11 13 6 13 -5 0 -3 7 4 15 10 12 8 16 -11 24 -20 8 -21 10 -5
10 11 1 16 4 13 8 -4 3 -2 12 5 20 8 10 6 20 -13 40 -13 14 -17 22 -9 17 8 -5
23 -9 33 -10 30 -3 33 -5 13 -13 -20 -8 -20 -8 0 -13 16 -4 20 0 19 22 0 18
-4 26 -12 23 -7 -3 -13 0 -13 6 0 6 5 11 10 11 6 0 10 5 10 11 0 5 -5 7 -12 3
-7 -5 -9 -2 -5 9 4 11 -1 18 -14 22 -15 5 -17 10 -9 20 6 7 7 15 3 17 -4 3 -3
3 4 2 7 -2 15 1 18 6 4 6 1 10 -5 10 -6 0 -8 5 -5 11 8 13 16 7 19 -15 1 -9 5
-16 9 -16 4 0 13 0 20 0 6 0 4 5 -6 11 -9 6 -15 14 -12 19 3 5 1 11 -4 15 -6
3 -7 13 -4 21 4 12 8 12 13 4 4 -7 13 -9 20 -5 9 6 9 9 -1 16 -10 6 -10 9 -2
9 6 0 15 -5 18 -11 4 -6 14 -8 22 -5 11 4 13 0 9 -17 -4 -14 -1 -11 9 8 8 17
14 26 15 21 0 -5 7 -3 15 4 12 10 18 10 30 0 12 -10 16 -8 24 11 6 13 10 17
11 9 0 -8 8 0 16 18 9 17 21 32 26 32 5 0 6 -5 2 -12 -5 -7 -3 -8 6 -3 10 6
12 4 7 -9 -4 -10 -3 -15 3 -11 13 8 13 35 -1 35 -5 0 -7 5 -3 11 4 8 0 8 -15
0 -11 -7 -21 -17 -21 -23 0 -6 -3 -9 -6 -5 -3 3 1 16 10 29 9 12 16 19 16 15
0 -5 5 -5 11 -1 8 4 7 9 -2 15 -10 6 -10 9 -2 9 6 0 14 -4 18 -10 3 -5 13 -6
22 -3 11 4 14 3 9 -6 -5 -7 -15 -10 -23 -7 -8 3 -11 1 -8 -4 9 -14 21 -12 40
7 14 14 18 14 26 2 7 -12 9 -12 10 1 1 8 1 21 0 29 -2 7 2 10 7 7 6 -3 12 1
16 9 3 8 11 15 18 15 10 0 10 -2 -1 -9 -10 -7 -11 -12 -1 -27 10 -16 11 -16 6
-1 -3 11 0 17 10 17 9 0 12 5 8 12 -4 7 -3 8 5 4 7 -5 9 -16 5 -28 -4 -14 -2
-18 5 -14 6 4 11 16 11 27 0 10 5 19 11 19 5 0 7 -4 4 -10 -3 -6 1 -7 9 -4 9
3 14 9 12 13 -3 4 4 7 14 7 10 0 16 -4 14 -8z m-1321 -6 c2 7 7 10 11 7 4 -3
0 -11 -7 -18 -11 -9 -17 -7 -28 6 -13 16 -12 17 3 5 13 -10 17 -10 21 0z
m1154 -6 c-3 -7 -1 -18 4 -23 6 -6 2 -9 -10 -8 -12 1 -24 5 -28 10 -5 4 -2 4
6 0 11 -6 13 -4 8 9 -4 10 -3 15 3 11 6 -3 10 -1 10 4 0 6 3 11 6 11 3 0 4 -6
1 -14z m221 -22 c-3 -16 -4 -15 -18 1 -9 11 -10 16 -2 11 8 -5 12 -1 13 11 0
10 3 13 6 6 2 -7 3 -20 1 -29z m-269 3 c0 -9 -2 -8 -6 1 -2 6 -10 9 -15 6 -7
-4 -8 -2 -4 5 9 13 26 5 25 -12z m-829 3 c0 -5 -2 -10 -4 -10 -3 0 -8 5 -11
10 -3 6 -1 10 4 10 6 0 11 -4 11 -10z m-345 -10 c3 -5 1 -10 -4 -10 -6 0 -11
5 -11 10 0 6 2 10 4 10 3 0 8 -4 11 -10z m1729 -51 c-3 -6 -1 -15 6 -19 8 -5
7 -9 -5 -13 -9 -4 -13 -3 -10 2 3 5 0 13 -6 17 -8 4 -7 9 2 15 19 12 21 11 13
-2z m-639 -9 c-3 -5 0 -10 7 -10 8 0 6 -5 -4 -11 -10 -5 -18 -17 -18 -26 0
-16 -14 -9 -16 8 -1 5 -2 12 -3 15 0 3 -10 -4 -21 -17 -10 -13 -19 -20 -20
-16 0 4 -9 3 -19 -3 -24 -12 -36 3 -16 20 11 9 18 10 28 1 16 -13 28 -5 20 15
-3 9 2 12 17 9 12 -2 23 2 27 10 3 8 9 15 15 15 5 0 6 -4 3 -10z m-642 -30
c-4 -16 -8 -18 -19 -9 -16 13 -19 23 -5 14 5 -3 12 -1 16 5 10 16 14 12 8 -10z
m37 10 c0 -5 -2 -10 -4 -10 -3 0 -8 5 -11 10 -3 6 -1 10 4 10 6 0 11 -4 11
-10z m1055 -11 c11 -16 1 -19 -13 -3 -7 8 -8 14 -3 14 5 0 13 -5 16 -11z
m-1745 -3 c0 -11 -19 -15 -25 -6 -3 5 1 10 9 10 9 0 16 -2 16 -4z m1747 -91
c0 -8 -4 -15 -9 -15 -10 0 -11 14 -1 23 9 10 10 9 10 -8z m-1536 -62 c0 -4 5
-14 11 -21 17 -20 0 -27 -20 -9 -10 10 -21 14 -24 11 -3 -3 -9 0 -13 6 -4 6
-1 9 7 8 8 -2 12 5 10 20 -2 21 0 22 13 8 9 -8 16 -19 16 -23z m1519 28 c0 -6
-5 -13 -11 -16 -6 -4 -8 -13 -5 -21 3 -8 2 -14 -3 -14 -16 0 -21 13 -10 27 9
10 8 13 -2 13 -11 0 -11 2 1 10 19 12 30 13 30 1z m20 -26 c-7 -9 -15 -13 -19
-10 -3 3 1 10 9 15 21 14 24 12 10 -5z m-1760 -15 c0 -5 -2 -10 -4 -10 -3 0
-8 5 -11 10 -3 6 -1 10 4 10 6 0 11 -4 11 -10z m1100 -2 c0 -4 -4 -8 -9 -8 -6
0 -12 4 -15 8 -3 5 1 9 9 9 8 0 15 -4 15 -9z m2 -23 c2 2 4 -4 4 -14 0 -11 -6
-17 -13 -14 -7 3 -10 9 -7 14 3 5 -2 9 -10 9 -9 0 -16 5 -16 10 0 7 6 7 19 1
10 -6 20 -8 23 -6z m651 8 c-7 -2 -14 -14 -14 -26 -1 -17 -2 -18 -6 -4 -2 9
-8 15 -13 12 -5 -3 -12 0 -16 6 -4 7 -3 9 2 6 6 -3 16 -2 24 4 8 5 20 8 25 8
6 0 4 -3 -2 -6z m-893 -63 c-8 -5 -11 -10 -6 -10 5 0 3 -7 -4 -15 -7 -8 -16
-12 -22 -9 -5 4 -5 11 1 18 6 7 9 15 6 17 -2 3 6 6 18 6 17 2 19 0 7 -7z m220
-21 c0 -5 -5 -9 -12 -9 -6 0 -8 3 -5 7 4 3 1 13 -6 22 -11 14 -10 14 6 2 9 -7
17 -17 17 -22z m-180 1 c0 -5 -5 -10 -11 -10 -5 0 -7 5 -4 10 3 6 8 10 11 10
2 0 4 -4 4 -10z m1025 0 c3 -6 -1 -7 -9 -4 -18 7 -21 14 -7 14 6 0 13 -4 16
-10z m-1925 -65 c0 -8 -2 -15 -4 -15 -2 0 -6 7 -10 15 -3 8 -1 15 4 15 6 0 10
-7 10 -15z m1754 -1 c3 -8 2 -12 -4 -9 -6 3 -10 10 -10 16 0 14 7 11 14 -7z
m-1518 -29 c10 -8 14 -15 9 -15 -6 0 -16 5 -23 12 -9 9 -13 7 -18 -5 -3 -9
-10 -17 -15 -17 -5 0 -4 9 3 20 15 24 18 24 44 5z m657 -20 c-3 -9 -8 -14 -10
-11 -3 3 -2 9 2 15 9 16 15 13 8 -4z m-20 -38 c3 -8 -1 -14 -8 -14 -7 0 -11 6
-8 14 3 7 6 13 8 13 2 0 5 -6 8 -13z m-868 -17 c-3 -5 -12 -10 -18 -10 -7 0
-6 4 3 10 19 12 23 12 15 0z m6 -24 c-10 -12 -8 -19 8 -35 12 -12 16 -21 10
-21 -8 0 -7 -6 2 -17 12 -15 12 -16 -1 -8 -8 6 -19 10 -25 10 -5 0 -10 11 -10
25 0 14 -4 31 -9 39 -6 9 -5 12 2 7 6 -3 13 -2 17 4 3 5 9 10 12 10 3 0 0 -6
-6 -14z m869 -6 c0 -5 -7 -7 -15 -4 -8 4 -15 8 -15 10 0 2 7 4 15 4 8 0 15 -4
15 -10z m-26 -21 c-8 -14 -21 -11 -21 5 0 8 6 12 14 9 7 -3 10 -9 7 -14z m235
-23 c0 -7 -2 -6 -6 2 -2 6 -8 10 -12 8 -4 -3 -8 1 -8 9 0 11 4 12 14 4 7 -6
13 -17 12 -23z m528 27 c-4 -3 1 -15 10 -26 13 -14 14 -18 3 -11 -8 4 -22 7
-32 6 -9 -2 -19 1 -22 7 -3 5 3 7 14 4 12 -3 20 -2 19 3 -2 15 1 24 8 24 3 0
3 -3 0 -7z m-742 -42 c0 -22 -3 -38 -6 -35 -5 3 -5 60 0 72 4 9 6 -4 6 -37z
m95 23 c0 -8 -19 -13 -24 -6 -3 5 1 9 9 9 8 0 15 -2 15 -3z m970 -4 c8 -5 12
-11 9 -14 -3 -3 -14 1 -25 9 -21 16 -8 20 16 5z m-449 -67 c11 -15 11 -16 0
-6 -7 6 -21 9 -30 6 -14 -4 -14 -3 -1 6 8 6 16 11 16 11 1 0 8 -8 15 -17z
m-1046 -11 c-3 -3 -11 0 -18 7 -9 10 -8 11 6 5 10 -3 15 -9 12 -12z m430 -21
c3 -5 0 -13 -6 -17 -7 -4 -9 -3 -5 4 3 5 0 13 -6 15 -9 4 -10 6 -1 6 6 1 14
-3 18 -8z m215 1 c0 -5 -9 -8 -20 -7 -29 2 -33 10 -5 13 14 1 25 -2 25 -6z
m390 -2 c0 -5 -5 -10 -11 -10 -5 0 -7 5 -4 10 3 6 8 10 11 10 2 0 4 -4 4 -10z
m-1400 -22 c0 -9 4 -8 11 2 9 13 10 12 5 -2 -6 -20 10 -34 17 -16 4 8 6 7 6
-4 1 -11 -6 -16 -19 -15 -10 1 -17 3 -15 6 3 2 -2 13 -12 23 -9 11 -11 18 -5
18 7 0 12 -6 12 -12z m1069 -12 c17 -18 19 -26 10 -31 -7 -5 -10 -4 -7 1 3 5
0 15 -8 22 -8 7 -14 9 -14 3 0 -5 -7 -12 -16 -15 -10 -4 -13 -2 -7 7 4 6 8 15
9 20 4 23 5 23 33 -7z m283 0 c7 4 8 2 4 -5 -9 -13 -26 -5 -25 12 0 9 2 8 6
-1 2 -6 10 -9 15 -6z m-922 0 c0 -2 -8 -10 -17 -17 -16 -13 -17 -12 -4 4 13
16 21 21 21 13z m292 -24 c-7 -2 -10 -8 -6 -13 3 -5 1 -9 -4 -9 -12 0 -23 26
-15 33 3 3 12 3 21 -1 10 -4 12 -7 4 -10z m494 -8 c10 -8 13 -12 6 -9 -8 4
-20 -1 -28 -11 -14 -18 -14 -18 -5 3 8 16 8 23 -2 26 -6 3 -7 6 -1 6 5 1 19
-6 30 -15z m-86 -28 c0 -2 -7 -7 -16 -10 -8 -3 -12 -2 -9 4 6 10 25 14 25 6z
m-835 -34 c-3 -3 -11 0 -18 7 -9 10 -8 11 6 5 10 -3 15 -9 12 -12z m1161 -27
c1 -8 -2 -15 -6 -15 -5 0 -8 9 -7 20 1 21 10 18 13 -5z m-938 -90 c-3 -3 -9 2
-12 12 -6 14 -5 15 5 6 7 -7 10 -15 7 -18z m775 17 c3 8 6 5 7 -7 1 -20 1 -20
15 -1 8 11 15 15 15 9 0 -6 -6 -16 -14 -22 -10 -9 -18 -7 -33 6 -10 10 -14 14
-7 10 7 -5 14 -2 17 5z m-833 -11 c0 -6 -4 -12 -8 -15 -5 -3 -9 1 -9 9 0 8 4
15 9 15 4 0 8 -4 8 -9z m160 -15 c0 -2 -12 -11 -27 -20 l-28 -17 24 20 c23 21
31 25 31 17z m-12 -37 c-10 -5 -18 -17 -18 -25 0 -8 -5 -12 -11 -9 -12 8 17
45 35 45 6 0 3 -5 -6 -11z m512 -29 c0 -5 -5 -10 -11 -10 -5 0 -7 5 -4 10 3 6
8 10 11 10 2 0 4 -4 4 -10z m-467 -50 c3 -11 1 -18 -4 -14 -5 3 -9 12 -9 20 0
20 7 17 13 -6z"/>
<path d="M2239 1663 c-13 -16 -12 -17 4 -4 9 7 17 15 17 17 0 8 -8 3 -21 -13z"/>
<path d="M1254 1232 c4 -7 2 -20 -5 -28 -11 -13 -9 -14 14 -3 15 7 26 13 25
13 -2 1 -12 8 -22 16 -14 10 -17 11 -12 2z"/>
<path d="M680 1110 c-6 -11 -8 -20 -6 -20 3 0 10 9 16 20 6 11 8 20 6 20 -3 0
-10 -9 -16 -20z"/>
<path d="M615 1049 c-4 -6 -5 -12 -2 -15 2 -3 7 2 10 11 7 17 1 20 -8 4z"/>
<path d="M593 1015 c0 -8 4 -12 9 -9 5 3 6 10 3 15 -9 13 -12 11 -12 -6z"/>
<path d="M990 970 c-8 -5 -10 -10 -5 -10 6 0 17 5 25 10 8 5 11 10 5 10 -5 0
-17 -5 -25 -10z"/>
<path d="M1130 904 c0 -8 5 -12 10 -9 6 4 8 11 5 16 -9 14 -15 11 -15 -7z"/>
<path d="M1140 820 c-9 -6 -10 -10 -3 -10 6 0 15 5 18 10 8 12 4 12 -15 0z"/>
<path d="M543 771 c-7 -11 -9 -23 -4 -26 11 -6 41 22 41 38 0 8 -3 7 -9 -2 -6
-9 -10 -10 -12 -2 -2 6 -9 3 -16 -8z"/>
<path d="M590 780 c0 -5 5 -10 11 -10 5 0 7 5 4 10 -3 6 -8 10 -11 10 -2 0 -4
-4 -4 -10z"/>
<path d="M1115 721 c-3 -5 -2 -12 3 -15 5 -3 9 1 9 9 0 17 -3 19 -12 6z"/>
<path d="M592 705 c4 -4 0 -14 -10 -22 -9 -8 -12 -12 -5 -9 6 4 13 1 15 -6 3
-7 7 -2 10 10 4 12 1 25 -5 29 -7 3 -9 3 -5 -2z"/>
<path d="M1131 674 c0 -11 3 -14 6 -6 3 7 2 16 -1 19 -3 4 -6 -2 -5 -13z"/>
<path d="M606 638 c3 -5 10 -6 15 -3 13 9 11 12 -6 12 -8 0 -12 -4 -9 -9z"/>
<path d="M1121 636 c-9 -11 -9 -16 1 -22 7 -4 10 -4 6 1 -4 4 -3 14 3 22 6 7
9 13 6 13 -2 0 -10 -6 -16 -14z"/>
<path d="M590 604 c0 -8 -4 -13 -8 -10 -4 2 -8 -4 -8 -14 0 -10 4 -16 8 -14 4
3 8 0 8 -5 0 -6 5 -11 11 -11 8 0 8 4 0 14 -9 11 -10 20 -1 35 7 14 7 21 0 21
-5 0 -10 -7 -10 -16z"/>
<path d="M675 520 c-4 -6 -11 -7 -17 -4 -7 4 -8 2 -4 -5 6 -9 11 -9 22 0 14
11 18 19 10 19 -3 0 -8 -5 -11 -10z"/>
<path d="M1136 454 c-6 -15 -4 -15 11 -3 10 7 20 15 22 16 2 2 -3 3 -11 3 -9
0 -19 -7 -22 -16z"/>
<path d="M856 438 c3 -5 10 -6 15 -3 13 9 11 12 -6 12 -8 0 -12 -4 -9 -9z"/>
<path d="M1140 430 c-20 -16 -21 -19 -5 -13 19 6 19 6 2 -14 -15 -17 -16 -23
-5 -29 7 -4 10 -4 6 0 -3 4 1 16 10 26 12 15 26 51 19 50 -1 0 -13 -9 -27 -20z"/>
<path d="M1095 400 c-3 -5 -1 -10 4 -10 6 0 11 5 11 10 0 6 -2 10 -4 10 -3 0
-8 -4 -11 -10z"/>
<path d="M955 360 c-3 -5 -1 -10 4 -10 6 0 11 5 11 10 0 6 -2 10 -4 10 -3 0
-8 -4 -11 -10z"/>
<path d="M983 355 c0 -7 6 -11 14 -8 7 3 13 6 13 8 0 2 -6 5 -13 8 -8 3 -14
-1 -14 -8z"/>
<path d="M1027 339 c7 -7 15 -10 18 -7 3 3 -2 9 -12 12 -14 6 -15 5 -6 -5z"/>
<path d="M1906 1121 c-3 -5 3 -11 13 -14 14 -3 18 -1 14 9 -6 16 -19 18 -27 5z"/>
<path d="M1935 1080 c3 -5 8 -10 11 -10 2 0 4 5 4 10 0 6 -5 10 -11 10 -5 0
-7 -4 -4 -10z"/>
<path d="M1995 1010 c-4 -6 1 -7 11 -3 11 4 15 2 11 -4 -4 -6 0 -14 9 -17 24
-9 25 -8 7 14 -19 22 -29 25 -38 10z"/>
<path d="M1976 973 c-6 -14 -5 -15 5 -6 7 7 10 15 7 18 -3 3 -9 -2 -12 -12z"/>
<path d="M1495 949 c-4 -6 -13 -8 -21 -5 -11 4 -11 2 -2 -14 12 -19 13 -19 20
1 5 12 13 17 19 13 8 -4 9 -3 5 4 -9 15 -13 15 -21 1z"/>
<path d="M1437 883 c-12 -12 -7 -19 15 -20 13 -1 18 1 13 5 -6 4 -13 11 -16
15 -3 4 -9 4 -12 0z"/>
<path d="M1465 840 c3 -5 8 -10 11 -10 2 0 4 5 4 10 0 6 -5 10 -11 10 -5 0 -7
-4 -4 -10z"/>
<path d="M2020 769 c-13 -8 -11 -12 9 -29 27 -23 16 -27 -15 -6 -18 13 -21 13
-21 0 0 -8 3 -12 5 -9 9 9 33 -35 26 -47 -5 -8 -10 -6 -15 8 -6 15 -8 15 -8 3
-1 -9 6 -22 14 -29 8 -7 15 -17 15 -23 0 -7 -4 -7 -12 1 -7 7 -19 12 -27 11
-14 0 -14 -1 -1 -6 8 -3 24 -13 35 -22 11 -9 17 -12 12 -7 -4 5 1 18 10 28 10
11 13 19 8 18 -32 -7 -38 1 -17 23 33 35 18 110 -18 86z m24 -20 c-3 -5 -10
-7 -15 -3 -5 3 -7 10 -3 15 3 5 10 7 15 3 5 -3 7 -10 3 -15z m1 -47 c-3 -3
-11 0 -18 7 -9 10 -8 11 6 5 10 -3 15 -9 12 -12z"/>
<path d="M1433 728 c-13 -21 -12 -37 2 -31 8 2 13 13 12 24 -2 22 -3 23 -14 7z"/>
<path d="M1450 621 c0 -6 4 -13 10 -16 6 -3 7 1 4 9 -7 18 -14 21 -14 7z"/>
<path d="M1970 619 c0 -5 5 -7 10 -4 6 3 10 8 10 11 0 2 -4 4 -10 4 -5 0 -10
-5 -10 -11z"/>
<path d="M1427 569 c7 -7 15 -10 18 -7 3 3 -2 9 -12 12 -14 6 -15 5 -6 -5z"/>
<path d="M1426 541 c-4 -5 3 -7 14 -4 23 6 26 13 6 13 -8 0 -17 -4 -20 -9z"/>
<path d="M1450 515 c0 -8 2 -15 4 -15 2 0 6 7 10 15 3 8 1 15 -4 15 -6 0 -10
-7 -10 -15z"/>
<path d="M1830 500 c-13 -8 -12 -10 3 -10 9 0 17 5 17 10 0 12 -1 12 -20 0z"/>
<path d="M1780 470 c-8 -5 -10 -10 -5 -10 6 0 17 5 25 10 8 5 11 10 5 10 -5 0
-17 -5 -25 -10z"/>
<path d="M1423 449 c-2 -23 3 -25 10 -4 4 8 3 16 -1 19 -4 3 -9 -4 -9 -15z"/>
<path d="M1735 450 c-4 -6 -10 -8 -14 -6 -4 3 -8 -1 -8 -8 0 -17 23 -10 31 10
6 16 0 19 -9 4z"/>
<path d="M1735 413 c-14 -11 -15 -14 -4 -10 9 3 21 1 27 -5 7 -7 10 -6 8 5 -3
25 -9 27 -31 10z"/>
<path d="M1525 990 c-3 -6 1 -7 9 -4 18 7 21 14 7 14 -6 0 -13 -4 -16 -10z"/>
<path d="M536 851 c-3 -5 2 -15 12 -22 15 -12 16 -12 5 2 -7 9 -10 19 -6 22 3
4 4 7 0 7 -3 0 -8 -4 -11 -9z"/>
<path d="M333 495 c0 -8 4 -12 9 -9 5 3 6 10 3 15 -9 13 -12 11 -12 -6z"/>
<path d="M379 1825 c-1 -3 -2 -9 -3 -14 -2 -14 -16 -26 -16 -14 0 5 -6 10 -14
10 -15 0 -16 -21 -1 -34 4 -4 5 -2 1 5 -7 13 6 17 17 5 4 -3 19 -8 33 -9 20
-2 23 0 15 10 -6 7 -7 16 -3 20 4 4 3 7 -3 6 -21 -5 -29 1 -15 10 10 6 11 10
3 10 -7 0 -14 -2 -14 -5z"/>
<path d="M645 1791 c-3 -5 0 -13 6 -17 7 -4 9 -3 5 4 -3 5 0 13 6 15 9 4 10 6
1 6 -6 1 -14 -3 -18 -8z"/>
<path d="M1895 1780 c3 -5 8 -10 11 -10 2 0 4 5 4 10 0 6 -5 10 -11 10 -5 0
-7 -4 -4 -10z"/>
<path d="M313 1750 c1 -11 5 -20 9 -20 3 0 6 9 5 20 -1 11 -5 20 -9 20 -3 0
-6 -9 -5 -20z"/>
<path d="M755 1760 c-3 -5 -1 -10 4 -10 6 0 11 5 11 10 0 6 -2 10 -4 10 -3 0
-8 -4 -11 -10z"/>
<path d="M2266 1741 c-13 -14 -14 -20 -4 -28 26 -20 37 -23 43 -13 4 6 3 10
-2 9 -22 -4 -34 2 -26 14 7 12 13 37 9 37 -2 0 -10 -8 -20 -19z"/>
<path d="M340 1722 c0 -7 -5 -11 -11 -9 -6 1 -13 -7 -15 -17 -2 -18 -1 -18 19
2 11 12 18 25 14 28 -4 4 -7 2 -7 -4z"/>
<path d="M796 1718 c3 -5 10 -6 15 -3 13 9 11 12 -6 12 -8 0 -12 -4 -9 -9z"/>
<path d="M331 1676 c-8 -9 -11 -19 -7 -23 3 -3 6 0 6 8 1 10 4 9 11 -4 6 -9
14 -15 20 -12 5 4 9 -1 9 -10 0 -9 -4 -13 -10 -10 -5 3 -10 1 -10 -4 0 -6 5
-11 11 -11 8 0 8 -4 0 -14 -15 -17 11 -30 28 -13 6 6 14 7 18 3 4 -4 1 -12 -7
-17 -11 -8 -10 -9 8 -4 16 5 22 2 22 -10 0 -10 -5 -13 -12 -9 -7 4 -4 -2 6
-15 14 -15 23 -18 30 -11 12 12 16 61 5 55 -3 -3 -14 4 -24 15 -17 19 -20 19
-42 5 -21 -14 -23 -14 -20 2 1 10 6 23 9 29 4 5 -3 23 -15 38 -21 25 -24 27
-36 12z m27 -21 c-3 -3 -9 2 -12 12 -6 14 -5 15 5 6 7 -7 10 -15 7 -18z m93
-98 c13 -22 -3 -47 -16 -26 -5 8 -4 10 3 5 19 -12 14 9 -10 40 -16 20 -17 25
-5 15 10 -8 23 -23 28 -34z"/>
<path d="M1036 1637 c3 -10 9 -15 12 -12 3 3 0 11 -7 18 -10 9 -11 8 -5 -6z"/>
<path d="M1509 1637 c6 -8 7 -18 3 -22 -4 -5 -1 -5 6 -1 10 6 10 11 1 22 -6 8
-14 14 -16 14 -3 0 0 -6 6 -13z"/>
<path d="M1535 1610 c-7 -23 -16 -25 -34 -7 -10 8 -12 8 -7 0 3 -6 2 -14 -4
-18 -5 -3 -10 2 -11 12 0 11 -3 13 -6 5 -3 -7 1 -20 9 -29 11 -15 11 -16 -4
-10 -42 16 -53 19 -40 9 11 -7 11 -10 -2 -15 -9 -4 -15 -12 -14 -18 2 -6 -3
-14 -10 -16 -8 -3 -10 2 -6 14 5 14 4 15 -4 4 -13 -18 -6 -38 13 -38 8 0 12 4
9 8 -2 4 4 12 13 18 14 8 15 10 3 11 -13 0 -13 1 0 10 20 13 33 13 24 -1 -10
-17 26 5 59 35 15 14 27 30 27 36 0 17 -8 11 -15 -10z"/>
<path d="M1116 1607 c3 -10 9 -15 12 -12 3 3 0 11 -7 18 -10 9 -11 8 -5 -6z"/>
<path d="M1035 1600 c3 -5 8 -10 11 -10 2 0 4 5 4 10 0 6 -5 10 -11 10 -5 0
-7 -4 -4 -10z"/>
<path d="M2151 1564 l-21 -35 22 15 c15 10 26 12 39 6 18 -10 19 -2 4 33 -11
25 -21 21 -44 -19z m39 12 c9 -12 8 -15 -8 -13 -12 0 -18 6 -15 14 6 16 8 16
23 -1z"/>
<path d="M1136 1574 c-24 -24 -19 -30 7 -8 12 10 24 20 26 21 2 2 -1 3 -7 3
-6 0 -18 -7 -26 -16z"/>
<path d="M1390 1579 c0 -5 5 -7 10 -4 6 3 10 8 10 11 0 2 -4 4 -10 4 -5 0 -10
-5 -10 -11z"/>
<path d="M1373 1545 c0 -8 4 -12 9 -9 5 3 6 10 3 15 -9 13 -12 11 -12 -6z"/>
<path d="M1166 1541 c-6 -10 32 -37 52 -36 6 0 11 5 10 10 -2 6 -6 9 -10 8 -5
-2 -8 2 -8 8 0 6 -9 8 -21 4 -15 -5 -19 -4 -15 4 4 6 5 11 2 11 -3 0 -7 -4
-10 -9z"/>
<path d="M2210 1525 c0 -7 30 -13 34 -7 3 4 -4 9 -15 9 -10 1 -19 0 -19 -2z"/>
<path d="M2223 1434 c0 -8 6 -14 14 -14 7 0 13 4 13 9 0 5 -6 11 -13 14 -8 3
-14 -1 -14 -9z"/>
<path d="M314 1356 c1 -19 5 -38 8 -42 4 -3 5 5 2 19 -2 14 0 29 6 32 11 7 4
25 -10 25 -4 0 -7 -15 -6 -34z"/>
<path d="M2290 1380 c0 -5 5 -10 11 -10 5 0 7 5 4 10 -3 6 -8 10 -11 10 -2 0
-4 -4 -4 -10z"/>
<path d="M2290 1330 c-9 -6 -10 -10 -3 -10 6 0 15 5 18 10 8 12 4 12 -15 0z"/>
<path d="M276 1222 c-3 -5 1 -9 9 -9 8 0 12 4 9 9 -3 4 -7 8 -9 8 -2 0 -6 -4
-9 -8z"/>
<path d="M2274 1212 c3 -6 2 -13 -4 -17 -16 -10 -12 -21 10 -22 11 -1 23 3 26
9 5 8 1 9 -10 5 -14 -5 -17 -3 -13 8 4 8 1 17 -5 21 -6 4 -8 3 -4 -4z"/>
<path d="M310 1199 c0 -5 5 -7 10 -4 6 3 10 8 10 11 0 2 -4 4 -10 4 -5 0 -10
-5 -10 -11z"/>
<path d="M307 1167 c-3 -8 -2 -20 3 -26 5 -9 8 -4 8 13 0 29 -3 32 -11 13z"/>
<path d="M2276 981 c-4 -5 -2 -12 3 -15 5 -4 12 -2 15 3 4 5 2 12 -3 15 -5 4
-12 2 -15 -3z"/>
<path d="M300 933 c5 -2 8 -9 4 -14 -3 -5 0 -9 6 -9 15 0 7 23 -8 26 -7 1 -8
0 -2 -3z"/>
<path d="M290 896 c0 -2 7 -7 16 -10 8 -3 12 -2 9 4 -6 10 -25 14 -25 6z"/>
<path d="M2274 871 c0 -11 4 -17 8 -15 4 3 8 12 8 20 0 8 -4 14 -8 14 -4 0 -8
-9 -8 -19z"/>
<path d="M2283 792 c-9 -15 -7 -21 11 -32 19 -12 20 -12 7 3 -11 14 -11 20 -1
32 7 8 8 15 4 15 -5 0 -14 -8 -21 -18z"/>
<path d="M300 773 c5 -2 8 -9 4 -14 -3 -5 0 -9 6 -9 15 0 7 23 -8 26 -7 1 -8
0 -2 -3z"/>
<path d="M2287 616 c-4 -10 -3 -15 3 -11 6 3 10 1 10 -6 0 -7 3 -10 6 -6 3 3
2 13 -4 22 -8 16 -9 16 -15 1z"/>
<path d="M2278 578 c9 -9 8 -16 -5 -30 -20 -22 -11 -24 11 -3 16 16 12 45 -7
45 -7 0 -7 -4 1 -12z"/>
<path d="M2225 450 c-11 -12 -20 -30 -22 -41 -3 -20 -3 -20 24 1 18 14 29 17
33 9 5 -7 9 -6 13 5 3 8 -1 22 -9 31 -19 19 -17 19 -39 -5z m41 -12 c4 -7 4
-10 -1 -6 -4 4 -17 2 -29 -4 -19 -10 -20 -10 -7 5 16 20 27 21 37 5z"/>
<path d="M305 439 c-6 -8 -4 -10 5 -4 10 6 12 4 6 -11 -6 -15 -5 -17 5 -6 9 9
10 15 2 23 -8 8 -13 7 -18 -2z"/>
<path d="M2170 336 c0 -2 8 -10 18 -17 15 -13 16 -12 3 4 -13 16 -21 21 -21
13z"/>
<path d="M470 318 c0 -8 14 -11 40 -9 11 1 10 -3 -4 -14 -11 -8 -15 -15 -9
-15 20 0 35 26 21 37 -16 12 -48 13 -48 1z"/>
<path d="M2148 313 c7 -3 16 -2 19 1 4 3 -2 6 -13 5 -11 0 -14 -3 -6 -6z"/>
<path d="M2110 300 c0 -5 5 -10 10 -10 6 0 10 5 10 10 0 6 -4 10 -10 10 -5 0
-10 -4 -10 -10z"/>
<path d="M534 289 c-3 -6 -3 -13 0 -16 3 -4 6 0 6 8 0 12 2 12 9 0 5 -8 11 -9
15 -3 3 5 -1 12 -9 16 -8 3 -17 1 -21 -5z"/>
<path d="M590 246 c0 -2 7 -6 15 -10 8 -3 15 -1 15 4 0 6 -7 10 -15 10 -8 0
-15 -2 -15 -4z"/>
<path d="M1895 225 c-17 -13 -27 -26 -23 -30 4 -4 2 -17 -4 -29 -9 -18 -7 -18
14 4 13 14 22 29 20 34 -3 5 2 7 11 3 10 -3 17 -2 17 4 0 6 6 7 13 3 7 -5 7
-1 -3 12 -8 10 -15 20 -15 21 0 1 -14 -9 -30 -22z m-2 -20 c-3 -9 -8 -14 -10
-11 -3 3 -2 9 2 15 9 16 15 13 8 -4z"/>
<path d="M650 211 c0 -7 -5 -9 -12 -5 -7 5 -8 3 -3 -5 5 -9 10 -10 18 -2 6 6
8 14 4 18 -4 3 -7 1 -7 -6z"/>
<path d="M764 171 c-13 -9 -16 -31 -4 -31 6 0 10 7 10 15 0 8 5 15 11 15 5 0
7 -6 3 -12 -5 -9 -2 -9 9 1 19 15 23 1 5 -17 -7 -7 -8 -12 -4 -12 9 0 35 30
36 40 0 8 -56 9 -66 1z"/>
<path d="M889 136 c7 -8 10 -20 6 -25 -3 -7 0 -8 9 -5 18 7 11 30 -11 38 -13
5 -14 4 -4 -8z"/>
<path d="M930 79 c0 -5 5 -7 10 -4 6 3 10 8 10 11 0 2 -4 4 -10 4 -5 0 -10 -5
-10 -11z"/>
<path d="M1609 49 c-6 -12 -4 -19 5 -22 10 -4 12 0 9 14 -4 14 -1 18 10 13 8
-3 17 -2 20 3 3 5 -3 9 -15 9 -11 0 -24 -8 -29 -17z"/>
<path d="M1010 45 c-10 -12 -10 -15 2 -15 8 0 15 7 15 15 0 8 -1 15 -2 15 -2
0 -8 -7 -15 -15z"/>
<path d="M965 40 c3 -5 11 -10 16 -10 6 0 7 5 4 10 -3 6 -11 10 -16 10 -6 0
-7 -4 -4 -10z"/>
<path d="M1555 40 c3 -5 8 -10 11 -10 2 0 4 5 4 10 0 6 -5 10 -11 10 -5 0 -7
-4 -4 -10z"/>
</g>
</svg>
